{
.appVersion = "1075";
date = "2018-03-16 22:51:34 +0000";
familyName = "Octagon-digitised";
fontMaster = (
{
ascender = 800;
capHeight = 700;
descender = -200;
id = "10F75160-F472-40CF-9C73-F68C0EB315F4";
xHeight = 500;
}
);
glyphs = (
{
glyphname = A;
lastChange = "2018-03-17 10:40:57 +0000";
layers = (
{
layerId = "10F75160-F472-40CF-9C73-F68C0EB315F4";
paths = (
{
closed = 1;
nodes = (
"224 422 LINE",
"221 424 OFFCURVE",
"218 425 OFFCURVE",
"215 425 CURVE",
"61 425 LINE",
"58 425 OFFCURVE",
"54 423 OFFCURVE",
"52 421 CURVE",
"50 418 OFFCURVE",
"49 414 OFFCURVE",
"50 411 CURVE",
"145 9 LINE",
"147 4 OFFCURVE",
"151 0 OFFCURVE",
"156 0 CURVE",
"157 0 OFFCURVE",
"158 0 OFFCURVE",
"159 0 CURVE",
"165 2 OFFCURVE",
"169 8 OFFCURVE",
"167 14 CURVE",
"133 161 LINE",
"450 161 LINE",
"605 5 LINE",
"610 0 OFFCURVE",
"617 0 OFFCURVE",
"621 5 CURVE",
"626 9 OFFCURVE",
"626 16 OFFCURVE",
"622 21 CURVE"
);
},
{
closed = 1;
nodes = (
"76 402 LINE",
"211 402 LINE",
"428 184 LINE",
"127 184 LINE"
);
}
);
width = 600;
}
);
unicode = 0041;
},
{
glyphname = B;
lastChange = "2018-03-17 10:31:14 +0000";
layers = (
{
layerId = "10F75160-F472-40CF-9C73-F68C0EB315F4";
paths = (
{
closed = 1;
nodes = (
"595 189 OFFCURVE",
"538 219 OFFCURVE",
"496 230 CURVE",
"504 236 OFFCURVE",
"511 243 OFFCURVE",
"516 251 CURVE",
"536 281 OFFCURVE",
"527 317 OFFCURVE",
"526 318 CURVE",
"498 419 OFFCURVE",
"404 425 OFFCURVE",
"402 425 CURVE",
"62 425 LINE",
"58 425 OFFCURVE",
"55 423 OFFCURVE",
"53 420 CURVE",
"50 418 OFFCURVE",
"50 414 OFFCURVE",
"51 410 CURVE",
"170 8 LINE",
"171 3 OFFCURVE",
"176 0 OFFCURVE",
"181 0 CURVE",
"491 0 LINE",
"531 2 OFFCURVE",
"561 15 OFFCURVE",
"580 37 CURVE",
"606 68 OFFCURVE",
"602 106 OFFCURVE",
"602 108 CURVE"
);
},
{
closed = 1;
nodes = (
"402 402 OFFCURVE",
"480 398 OFFCURVE",
"504 313 CURVE",
"505 312 OFFCURVE",
"511 285 OFFCURVE",
"497 263 CURVE",
"488 250 OFFCURVE",
"473 241 OFFCURVE",
"451 236 CURVE",
"126 236 LINE",
"77 402 LINE",
"402 402 LINE"
);
},
{
closed = 1;
nodes = (
"547 34 OFFCURVE",
"523 24 OFFCURVE",
"490 23 CURVE",
"189 23 LINE",
"133 214 LINE",
"450 214 LINE",
"450 214 OFFCURVE",
"451 213 OFFCURVE",
"451 213 CURVE",
"452 213 OFFCURVE",
"452 213 OFFCURVE",
"452 213 CURVE",
"456 214 OFFCURVE",
"570 214 OFFCURVE",
"579 105 CURVE",
"579 105 OFFCURVE",
"582 75 OFFCURVE",
"562 52 CURVE"
);
}
);
width = 652;
}
);
unicode = 0042;
},
{
glyphname = C;
lastChange = "2018-03-17 10:31:05 +0000";
layers = (
{
layerId = "10F75160-F472-40CF-9C73-F68C0EB315F4";
paths = (
{
closed = 1;
nodes = (
"564 147 OFFCURVE",
"559 153 OFFCURVE",
"553 152 CURVE",
"547 152 OFFCURVE",
"542 147 OFFCURVE",
"542 140 CURVE",
"543 95 OFFCURVE",
"534 62 OFFCURVE",
"515 41 CURVE",
"498 23 OFFCURVE",
"478 23 OFFCURVE",
"477 23 CURVE",
"258 23 LINE",
"197 23 OFFCURVE",
"145 92 OFFCURVE",
"137 103 CURVE",
"75 325 LINE",
"61 371 OFFCURVE",
"115 396 OFFCURVE",
"126 401 CURVE",
"316 401 LINE",
"385 401 OFFCURVE",
"405 386 OFFCURVE",
"405 386 CURVE",
"485 313 LINE",
"490 309 OFFCURVE",
"497 309 OFFCURVE",
"502 314 CURVE",
"506 318 OFFCURVE",
"505 325 OFFCURVE",
"501 330 CURVE",
"421 403 LINE",
"418 405 OFFCURVE",
"395 423 OFFCURVE",
"316 423 CURVE",
"124 423 LINE",
"122 423 OFFCURVE",
"121 423 OFFCURVE",
"120 423 CURVE",
"89 411 OFFCURVE",
"36 375 OFFCURVE",
"53 318 CURVE",
"116 95 LINE",
"116 94 OFFCURVE",
"116 93 OFFCURVE",
"117 92 CURVE",
"120 88 OFFCURVE",
"180 0 OFFCURVE",
"258 0 CURVE",
"477 0 LINE",
"478 0 OFFCURVE",
"507 0 OFFCURVE",
"531 25 CURVE",
"555 50 OFFCURVE",
"566 89 OFFCURVE",
"564 141 CURVE"
);
}
);
width = 614;
}
);
unicode = 0043;
},
{
glyphname = D;
lastChange = "2018-03-17 10:31:24 +0000";
layers = (
{
layerId = "10F75160-F472-40CF-9C73-F68C0EB315F4";
paths = (
{
closed = 1;
nodes = (
"554 316 LINE",
"554 316 OFFCURVE",
"554 316 OFFCURVE",
"554 316 CURVE",
"552 321 OFFCURVE",
"513 423 OFFCURVE",
"414 423 CURVE",
"62 423 LINE",
"58 423 OFFCURVE",
"55 422 OFFCURVE",
"53 419 CURVE",
"50 416 OFFCURVE",
"50 412 OFFCURVE",
"51 408 CURVE",
"187 8 LINE",
"189 3 OFFCURVE",
"193 0 OFFCURVE",
"198 0 CURVE",
"508 0 LINE",
"508 0 OFFCURVE",
"509 0 OFFCURVE",
"510 0 CURVE",
"512 1 OFFCURVE",
"574 14 OFFCURVE",
"602 61 CURVE",
"617 86 OFFCURVE",
"620 116 OFFCURVE",
"610 149 CURVE"
);
},
{
closed = 1;
nodes = (
"562 37 OFFCURVE",
"514 24 OFFCURVE",
"506 23 CURVE",
"206 23 LINE",
"78 401 LINE",
"414 401 LINE",
"495 401 OFFCURVE",
"531 313 OFFCURVE",
"533 309 CURVE",
"589 143 LINE",
"597 116 OFFCURVE",
"595 92 OFFCURVE",
"583 72 CURVE"
);
}
);
width = 666;
}
);
unicode = 0044;
},
{
glyphname = E;
lastChange = "2018-03-17 10:31:29 +0000";
layers = (
{
layerId = "10F75160-F472-40CF-9C73-F68C0EB315F4";
paths = (
{
closed = 1;
nodes = (
"196 23 LINE",
"136 213 LINE",
"443 213 LINE",
"450 213 OFFCURVE",
"455 218 OFFCURVE",
"455 225 CURVE",
"455 231 OFFCURVE",
"450 236 OFFCURVE",
"443 236 CURVE",
"129 236 LINE",
"77 402 LINE",
"531 402 LINE",
"538 402 OFFCURVE",
"543 407 OFFCURVE",
"543 414 CURVE",
"543 420 OFFCURVE",
"538 425 OFFCURVE",
"531 425 CURVE",
"62 425 LINE",
"58 425 OFFCURVE",
"55 423 OFFCURVE",
"52 420 CURVE",
"50 417 OFFCURVE",
"50 414 OFFCURVE",
"51 410 CURVE",
"177 8 LINE",
"178 3 OFFCURVE",
"182 0 OFFCURVE",
"187 0 CURVE",
"634 0 LINE",
"640 0 OFFCURVE",
"645 5 OFFCURVE",
"645 11 CURVE",
"645 18 OFFCURVE",
"640 23 OFFCURVE",
"634 23 CURVE"
);
}
);
width = 695;
}
);
unicode = 0045;
},
{
glyphname = F;
lastChange = "2018-03-17 10:31:34 +0000";
layers = (
{
layerId = "10F75160-F472-40CF-9C73-F68C0EB315F4";
paths = (
{
closed = 1;
nodes = (
"62 423 LINE",
"58 423 OFFCURVE",
"54 421 OFFCURVE",
"52 418 CURVE",
"50 415 OFFCURVE",
"50 412 OFFCURVE",
"51 408 CURVE",
"180 8 LINE",
"181 4 OFFCURVE",
"186 0 OFFCURVE",
"190 0 CURVE",
"192 0 OFFCURVE",
"193 1 OFFCURVE",
"194 1 CURVE",
"200 3 OFFCURVE",
"203 9 OFFCURVE",
"201 15 CURVE",
"138 212 LINE",
"427 212 LINE",
"433 212 OFFCURVE",
"438 217 OFFCURVE",
"438 224 CURVE",
"438 230 OFFCURVE",
"433 235 OFFCURVE",
"427 235 CURVE",
"130 235 LINE",
"77 400 LINE",
"504 400 LINE",
"510 400 OFFCURVE",
"516 405 OFFCURVE",
"516 412 CURVE",
"516 418 OFFCURVE",
"510 423 OFFCURVE",
"504 423 CURVE"
);
}
);
width = 566;
}
);
unicode = 0046;
},
{
glyphname = G;
lastChange = "2018-03-17 10:31:41 +0000";
layers = (
{
layerId = "10F75160-F472-40CF-9C73-F68C0EB315F4";
paths = (
{
closed = 1;
nodes = (
"554 176 OFFCURVE",
"532 184 OFFCURVE",
"505 184 CURVE",
"274 184 LINE",
"268 184 OFFCURVE",
"263 179 OFFCURVE",
"263 173 CURVE",
"263 166 OFFCURVE",
"268 161 OFFCURVE",
"274 161 CURVE",
"505 161 LINE",
"526 161 OFFCURVE",
"541 156 OFFCURVE",
"551 144 CURVE",
"569 124 OFFCURVE",
"565 91 OFFCURVE",
"564 89 CURVE",
"564 25 OFFCURVE",
"472 23 OFFCURVE",
"468 23 CURVE",
"256 23 LINE",
"209 23 OFFCURVE",
"148 88 OFFCURVE",
"127 115 CURVE",
"77 284 LINE",
"55 364 OFFCURVE",
"122 397 OFFCURVE",
"134 402 CURVE",
"368 402 LINE",
"404 402 OFFCURVE",
"438 372 OFFCURVE",
"444 367 CURVE",
"502 275 LINE",
"505 269 OFFCURVE",
"512 268 OFFCURVE",
"518 271 CURVE",
"523 274 OFFCURVE",
"525 281 OFFCURVE",
"521 287 CURVE",
"463 380 LINE",
"462 381 OFFCURVE",
"462 381 OFFCURVE",
"461 382 CURVE",
"459 384 OFFCURVE",
"417 425 OFFCURVE",
"368 425 CURVE",
"132 425 LINE",
"130 425 OFFCURVE",
"129 425 OFFCURVE",
"128 424 CURVE",
"127 424 OFFCURVE",
"26 384 OFFCURVE",
"56 277 CURVE",
"106 107 LINE",
"107 105 OFFCURVE",
"107 104 OFFCURVE",
"108 103 CURVE",
"111 99 OFFCURVE",
"187 0 OFFCURVE",
"256 0 CURVE",
"468 0 LINE",
"509 1 OFFCURVE",
"587 20 OFFCURVE",
"587 88 CURVE",
"587 90 OFFCURVE",
"593 131 OFFCURVE",
"568 159 CURVE"
);
}
);
width = 638;
}
);
unicode = 0047;
},
{
glyphname = H;
lastChange = "2018-03-17 10:31:46 +0000";
layers = (
{
layerId = "10F75160-F472-40CF-9C73-F68C0EB315F4";
paths = (
{
closed = 1;
nodes = (
"527 418 LINE",
"525 424 OFFCURVE",
"518 427 OFFCURVE",
"513 425 CURVE",
"507 423 OFFCURVE",
"503 416 OFFCURVE",
"505 410 CURVE",
"565 236 LINE",
"135 236 LINE",
"73 418 LINE",
"71 424 OFFCURVE",
"64 427 OFFCURVE",
"59 425 CURVE",
"53 423 OFFCURVE",
"49 416 OFFCURVE",
"51 410 CURVE",
"188 8 LINE",
"190 3 OFFCURVE",
"195 0 OFFCURVE",
"199 0 CURVE",
"200 0 OFFCURVE",
"202 1 OFFCURVE",
"203 1 CURVE",
"209 3 OFFCURVE",
"212 10 OFFCURVE",
"210 15 CURVE",
"142 214 LINE",
"572 214 LINE",
"643 8 LINE",
"644 3 OFFCURVE",
"649 0 OFFCURVE",
"653 0 CURVE",
"654 0 OFFCURVE",
"656 1 OFFCURVE",
"657 1 CURVE",
"663 3 OFFCURVE",
"666 10 OFFCURVE",
"664 15 CURVE"
);
}
);
width = 715;
}
);
unicode = 0048;
},
{
glyphname = I;
lastChange = "2018-03-17 10:31:51 +0000";
layers = (
{
layerId = "10F75160-F472-40CF-9C73-F68C0EB315F4";
paths = (
{
closed = 1;
nodes = (
"193 0 OFFCURVE",
"188 3 OFFCURVE",
"187 8 CURVE",
"51 410 LINE",
"49 416 OFFCURVE",
"52 423 OFFCURVE",
"58 425 CURVE",
"64 427 OFFCURVE",
"70 424 OFFCURVE",
"72 418 CURVE",
"208 15 LINE",
"210 10 OFFCURVE",
"207 3 OFFCURVE",
"201 1 CURVE",
"200 1 OFFCURVE",
"198 0 OFFCURVE",
"197 0 CURVE"
);
}
);
width = 259;
}
);
unicode = 0049;
},
{
glyphname = J;
lastChange = "2018-03-17 10:32:01 +0000";
layers = (
{
layerId = "10F75160-F472-40CF-9C73-F68C0EB315F4";
paths = (
{
closed = 1;
nodes = (
"218 416 LINE",
"216 422 OFFCURVE",
"210 425 OFFCURVE",
"204 423 CURVE",
"198 421 OFFCURVE",
"195 415 OFFCURVE",
"197 409 CURVE",
"292 126 LINE",
"292 126 OFFCURVE",
"306 88 OFFCURVE",
"287 60 CURVE",
"274 38 OFFCURVE",
"246 26 OFFCURVE",
"206 23 CURVE",
"205 23 OFFCURVE",
"113 24 OFFCURVE",
"73 147 CURVE",
"71 153 OFFCURVE",
"64 156 OFFCURVE",
"58 154 CURVE",
"52 152 OFFCURVE",
"49 146 OFFCURVE",
"51 140 CURVE",
"96 3 OFFCURVE",
"200 0 OFFCURVE",
"207 0 CURVE",
"207 0 OFFCURVE",
"207 0 OFFCURVE",
"207 0 CURVE",
"255 4 OFFCURVE",
"289 20 OFFCURVE",
"307 47 CURVE",
"331 86 OFFCURVE",
"314 132 OFFCURVE",
"314 134 CURVE"
);
}
);
width = 370;
}
);
unicode = 004A;
},
{
glyphname = K;
lastChange = "2018-03-17 10:32:06 +0000";
layers = (
{
layerId = "10F75160-F472-40CF-9C73-F68C0EB315F4";
paths = (
{
closed = 1;
nodes = (
"292 247 LINE",
"476 405 LINE",
"481 409 OFFCURVE",
"481 417 OFFCURVE",
"477 421 CURVE",
"473 426 OFFCURVE",
"466 427 OFFCURVE",
"461 423 CURVE",
"159 163 LINE",
"73 418 LINE",
"71 424 OFFCURVE",
"64 427 OFFCURVE",
"58 425 CURVE",
"52 423 OFFCURVE",
"49 416 OFFCURVE",
"51 410 CURVE",
"143 140 LINE",
"143 140 OFFCURVE",
"143 140 OFFCURVE",
"143 140 CURVE",
"187 8 LINE",
"189 3 OFFCURVE",
"193 0 OFFCURVE",
"198 0 CURVE",
"199 0 OFFCURVE",
"200 1 OFFCURVE",
"202 1 CURVE",
"208 3 OFFCURVE",
"211 9 OFFCURVE",
"209 15 CURVE",
"167 140 LINE",
"273 232 LINE",
"646 4 LINE",
"648 2 OFFCURVE",
"650 2 OFFCURVE",
"652 2 CURVE",
"656 2 OFFCURVE",
"659 4 OFFCURVE",
"662 7 CURVE",
"665 13 OFFCURVE",
"663 20 OFFCURVE",
"658 23 CURVE"
);
}
);
width = 713;
}
);
unicode = 004B;
},
{
glyphname = L;
lastChange = "2018-03-17 10:32:13 +0000";
layers = (
{
layerId = "10F75160-F472-40CF-9C73-F68C0EB315F4";
paths = (
{
closed = 1;
nodes = (
"206 23 LINE",
"73 418 LINE",
"71 424 OFFCURVE",
"64 427 OFFCURVE",
"58 425 CURVE",
"52 423 OFFCURVE",
"49 416 OFFCURVE",
"51 410 CURVE",
"187 8 LINE",
"187 8 OFFCURVE",
"187 8 OFFCURVE",
"187 8 CURVE",
"188 7 OFFCURVE",
"188 7 OFFCURVE",
"188 7 CURVE",
"189 6 OFFCURVE",
"189 5 OFFCURVE",
"190 4 CURVE",
"190 4 OFFCURVE",
"190 4 OFFCURVE",
"191 3 CURVE",
"191 3 OFFCURVE",
"192 2 OFFCURVE",
"193 2 CURVE",
"193 2 OFFCURVE",
"194 1 OFFCURVE",
"194 1 CURVE",
"195 1 OFFCURVE",
"197 0 OFFCURVE",
"198 0 CURVE",
"621 0 LINE",
"627 0 OFFCURVE",
"632 6 OFFCURVE",
"632 12 CURVE",
"632 18 OFFCURVE",
"627 23 OFFCURVE",
"621 23 CURVE"
);
}
);
width = 682;
}
);
unicode = 004C;
},
{
glyphname = M;
lastChange = "2018-03-17 10:32:17 +0000";
layers = (
{
layerId = "10F75160-F472-40CF-9C73-F68C0EB315F4";
paths = (
{
closed = 1;
nodes = (
"573 416 LINE",
"572 420 OFFCURVE",
"568 423 OFFCURVE",
"563 424 CURVE",
"558 423 OFFCURVE",
"554 421 OFFCURVE",
"552 417 CURVE",
"410 118 LINE",
"69 421 LINE",
"65 424 OFFCURVE",
"60 425 OFFCURVE",
"55 422 CURVE",
"51 419 OFFCURVE",
"49 413 OFFCURVE",
"51 409 CURVE",
"187 6 LINE",
"189 2 OFFCURVE",
"193 -1 OFFCURVE",
"198 -1 CURVE",
"199 -1 OFFCURVE",
"200 -1 OFFCURVE",
"201 -1 CURVE",
"207 1 OFFCURVE",
"210 8 OFFCURVE",
"208 14 CURVE",
"86 375 LINE",
"400 97 LINE",
"362 16 LINE",
"360 13 OFFCURVE",
"360 9 OFFCURVE",
"363 6 CURVE",
"365 2 OFFCURVE",
"368 0 OFFCURVE",
"372 0 CURVE",
"513 0 LINE",
"517 0 OFFCURVE",
"522 3 OFFCURVE",
"523 8 CURVE",
"525 12 OFFCURVE",
"524 17 OFFCURVE",
"520 20 CURVE",
"428 102 LINE",
"561 383 LINE",
"693 8 LINE",
"695 2 OFFCURVE",
"701 -1 OFFCURVE",
"707 1 CURVE",
"713 3 OFFCURVE",
"716 9 OFFCURVE",
"714 15 CURVE"
);
},
{
closed = 1;
nodes = (
"390 23 LINE",
"418 81 LINE",
"483 23 LINE"
);
}
);
width = 765;
}
);
unicode = 004D;
},
{
glyphname = N;
lastChange = "2018-03-17 10:32:42 +0000";
layers = (
{
layerId = "10F75160-F472-40CF-9C73-F68C0EB315F4";
paths = (
{
closed = 1;
nodes = (
"545 415 LINE",
"543 421 OFFCURVE",
"536 424 OFFCURVE",
"530 422 CURVE",
"525 420 OFFCURVE",
"521 414 OFFCURVE",
"523 408 CURVE",
"645 38 LINE",
"68 421 LINE",
"64 423 OFFCURVE",
"59 423 OFFCURVE",
"55 420 CURVE",
"51 417 OFFCURVE",
"49 412 OFFCURVE",
"51 408 CURVE",
"186 7 LINE",
"188 1 OFFCURVE",
"195 -2 OFFCURVE",
"201 0 CURVE",
"207 2 OFFCURVE",
"210 8 OFFCURVE",
"208 14 CURVE",
"83 383 LINE",
"660 1 LINE",
"662 0 OFFCURVE",
"664 -1 OFFCURVE",
"667 -1 CURVE",
"669 -1 OFFCURVE",
"671 0 OFFCURVE",
"673 2 CURVE",
"677 4 OFFCURVE",
"679 10 OFFCURVE",
"677 14 CURVE"
);
}
);
width = 728;
}
);
unicode = 004E;
},
{
glyphname = O;
lastChange = "2018-03-17 10:32:51 +0000";
layers = (
{
layerId = "10F75160-F472-40CF-9C73-F68C0EB315F4";
paths = (
{
closed = 1;
nodes = (
"237 0 OFFCURVE",
"135 6 OFFCURVE",
"81 151 CURVE",
"78 157 OFFCURVE",
"20 308 OFFCURVE",
"72 383 CURVE",
"91 411 OFFCURVE",
"121 425 OFFCURVE",
"162 425 CURVE",
"362 425 LINE",
"366 425 OFFCURVE",
"461 424 OFFCURVE",
"510 326 CURVE",
"514 320 OFFCURVE",
"620 150 OFFCURVE",
"578 57 CURVE",
"563 25 OFFCURVE",
"535 6 OFFCURVE",
"493 0 CURVE",
"492 0 OFFCURVE",
"492 0 OFFCURVE",
"491 0 CURVE",
"254 0 LINE",
"253 0 OFFCURVE",
"253 0 OFFCURVE",
"252 0 CURVE"
);
},
{
closed = 1;
nodes = (
"129 402 OFFCURVE",
"105 392 OFFCURVE",
"91 371 CURVE",
"46 305 OFFCURVE",
"101 160 OFFCURVE",
"102 159 CURVE",
"153 21 OFFCURVE",
"249 23 OFFCURVE",
"253 23 CURVE",
"490 23 LINE",
"524 28 OFFCURVE",
"546 42 OFFCURVE",
"557 66 CURVE",
"595 148 OFFCURVE",
"492 313 OFFCURVE",
"491 315 CURVE",
"447 401 OFFCURVE",
"363 402 OFFCURVE",
"362 402 CURVE",
"162 402 LINE"
);
}
);
width = 638;
}
);
unicode = 004F;
},
{
glyphname = P;
lastChange = "2018-03-17 10:32:55 +0000";
layers = (
{
layerId = "10F75160-F472-40CF-9C73-F68C0EB315F4";
paths = (
{
closed = 1;
nodes = (
"61 423 LINE",
"58 423 OFFCURVE",
"54 421 OFFCURVE",
"52 418 CURVE",
"50 415 OFFCURVE",
"49 412 OFFCURVE",
"51 408 CURVE",
"186 8 LINE",
"188 3 OFFCURVE",
"192 0 OFFCURVE",
"197 0 CURVE",
"198 0 OFFCURVE",
"199 0 OFFCURVE",
"200 1 CURVE",
"206 3 OFFCURVE",
"209 9 OFFCURVE",
"207 15 CURVE",
"141 212 LINE",
"446 212 LINE",
"513 212 OFFCURVE",
"531 265 OFFCURVE",
"531 293 CURVE",
"531 407 OFFCURVE",
"407 423 OFFCURVE",
"404 423 CURVE"
);
},
{
closed = 1;
nodes = (
"133 234 LINE",
"77 401 LINE",
"403 401 LINE",
"407 400 OFFCURVE",
"508 387 OFFCURVE",
"508 293 CURVE",
"508 290 OFFCURVE",
"507 234 OFFCURVE",
"446 234 CURVE"
);
}
);
width = 581;
}
);
unicode = 0050;
},
{
glyphname = Q;
lastChange = "2018-03-17 10:32:59 +0000";
layers = (
{
layerId = "10F75160-F472-40CF-9C73-F68C0EB315F4";
paths = (
{
closed = 1;
nodes = (
"400 -40 LINE",
"387 0 LINE",
"491 0 LINE",
"491 0 OFFCURVE",
"492 0 OFFCURVE",
"493 0 CURVE",
"535 6 OFFCURVE",
"563 25 OFFCURVE",
"577 56 CURVE",
"620 150 OFFCURVE",
"514 320 OFFCURVE",
"510 326 CURVE",
"461 423 OFFCURVE",
"366 424 OFFCURVE",
"362 424 CURVE",
"162 424 LINE",
"121 424 OFFCURVE",
"91 410 OFFCURVE",
"72 383 CURVE",
"20 308 OFFCURVE",
"78 157 OFFCURVE",
"80 150 CURVE",
"135 5 OFFCURVE",
"237 0 OFFCURVE",
"252 0 CURVE",
"253 0 OFFCURVE",
"253 0 OFFCURVE",
"254 0 CURVE",
"364 0 LINE",
"381 -55 LINE",
"383 -59 OFFCURVE",
"387 -63 OFFCURVE",
"392 -63 CURVE",
"612 -63 LINE",
"618 -63 OFFCURVE",
"623 -57 OFFCURVE",
"623 -51 CURVE",
"623 -45 OFFCURVE",
"618 -40 OFFCURVE",
"612 -40 CURVE"
);
},
{
closed = 1;
nodes = (
"249 22 OFFCURVE",
"153 21 OFFCURVE",
"102 159 CURVE",
"101 160 OFFCURVE",
"46 305 OFFCURVE",
"91 370 CURVE",
"105 391 OFFCURVE",
"128 402 OFFCURVE",
"162 402 CURVE",
"362 402 LINE",
"363 402 OFFCURVE",
"447 401 OFFCURVE",
"491 315 CURVE",
"492 313 OFFCURVE",
"594 148 OFFCURVE",
"557 66 CURVE",
"546 42 OFFCURVE",
"524 28 OFFCURVE",
"490 22 CURVE",
"380 22 LINE",
"341 140 LINE",
"339 146 OFFCURVE",
"333 149 OFFCURVE",
"327 147 CURVE",
"321 145 OFFCURVE",
"318 139 OFFCURVE",
"320 133 CURVE",
"356 22 LINE",
"253 22 LINE"
);
}
);
width = 673;
}
);
unicode = 0051;
},
{
glyphname = R;
lastChange = "2018-03-17 10:33:04 +0000";
layers = (
{
layerId = "10F75160-F472-40CF-9C73-F68C0EB315F4";
paths = (
{
closed = 1;
nodes = (
"426 212 LINE",
"472 212 OFFCURVE",
"505 223 OFFCURVE",
"524 245 CURVE",
"544 267 OFFCURVE",
"541 292 OFFCURVE",
"541 292 CURVE",
"541 408 OFFCURVE",
"440 423 OFFCURVE",
"437 423 CURVE",
"61 423 LINE",
"57 423 OFFCURVE",
"54 421 OFFCURVE",
"52 418 CURVE",
"50 415 OFFCURVE",
"49 412 OFFCURVE",
"50 408 CURVE",
"114 220 LINE",
"114 219 OFFCURVE",
"114 219 OFFCURVE",
"114 219 CURVE",
"186 8 LINE",
"187 3 OFFCURVE",
"192 0 OFFCURVE",
"196 0 CURVE",
"198 0 OFFCURVE",
"199 0 OFFCURVE",
"200 1 CURVE",
"206 3 OFFCURVE",
"209 9 OFFCURVE",
"207 15 CURVE",
"141 212 LINE",
"395 212 LINE",
"586 4 LINE",
"588 1 OFFCURVE",
"591 0 OFFCURVE",
"594 0 CURVE",
"597 0 OFFCURVE",
"599 1 OFFCURVE",
"602 3 CURVE",
"606 7 OFFCURVE",
"607 14 OFFCURVE",
"602 19 CURVE"
);
},
{
closed = 1;
nodes = (
"77 400 LINE",
"436 401 LINE",
"439 400 OFFCURVE",
"518 388 OFFCURVE",
"518 291 CURVE",
"519 290 OFFCURVE",
"520 274 OFFCURVE",
"507 259 CURVE",
"492 243 OFFCURVE",
"463 234 OFFCURVE",
"424 234 CURVE",
"133 234 LINE"
);
}
);
width = 655;
}
);
unicode = 0052;
},
{
glyphname = S;
lastChange = "2018-03-17 10:33:10 +0000";
layers = (
{
layerId = "10F75160-F472-40CF-9C73-F68C0EB315F4";
paths = (
{
closed = 1;
nodes = (
"189 234 LINE",
"97 234 OFFCURVE",
"79 294 OFFCURVE",
"78 297 CURVE",
"57 374 OFFCURVE",
"111 397 OFFCURVE",
"121 400 CURVE",
"393 400 LINE",
"459 400 OFFCURVE",
"477 307 OFFCURVE",
"477 306 CURVE",
"478 300 OFFCURVE",
"484 296 OFFCURVE",
"491 297 CURVE",
"497 298 OFFCURVE",
"501 304 OFFCURVE",
"500 310 CURVE",
"499 315 OFFCURVE",
"477 423 OFFCURVE",
"393 423 CURVE",
"119 423 LINE",
"118 423 OFFCURVE",
"117 423 OFFCURVE",
"116 423 CURVE",
"115 422 OFFCURVE",
"27 396 OFFCURVE",
"56 291 CURVE",
"57 287 OFFCURVE",
"80 212 OFFCURVE",
"189 212 CURVE",
"435 212 LINE",
"440 211 OFFCURVE",
"555 200 OFFCURVE",
"555 98 CURVE",
"555 98 OFFCURVE",
"555 79 OFFCURVE",
"546 59 CURVE",
"535 35 OFFCURVE",
"516 23 OFFCURVE",
"488 23 CURVE",
"220 23 LINE",
"210 26 OFFCURVE",
"145 51 OFFCURVE",
"128 125 CURVE",
"126 131 OFFCURVE",
"120 135 OFFCURVE",
"114 133 CURVE",
"108 132 OFFCURVE",
"104 126 OFFCURVE",
"105 120 CURVE",
"127 27 OFFCURVE",
"211 2 OFFCURVE",
"215 0 CURVE",
"216 0 OFFCURVE",
"217 0 OFFCURVE",
"218 0 CURVE",
"488 0 LINE",
"535 0 OFFCURVE",
"556 27 OFFCURVE",
"567 50 CURVE",
"577 74 OFFCURVE",
"577 97 OFFCURVE",
"577 98 CURVE",
"577 221 OFFCURVE",
"439 234 OFFCURVE",
"436 234 CURVE"
);
}
);
width = 627;
}
);
unicode = 0053;
},
{
glyphname = T;
lastChange = "2018-03-17 10:33:14 +0000";
layers = (
{
layerId = "10F75160-F472-40CF-9C73-F68C0EB315F4";
paths = (
{
closed = 1;
nodes = (
"61 423 LINE",
"55 423 OFFCURVE",
"50 418 OFFCURVE",
"50 412 CURVE",
"50 406 OFFCURVE",
"55 400 OFFCURVE",
"61 400 CURVE",
"265 400 LINE",
"398 8 LINE",
"400 3 OFFCURVE",
"404 0 OFFCURVE",
"409 0 CURVE",
"410 0 OFFCURVE",
"411 0 OFFCURVE",
"413 1 CURVE",
"418 3 OFFCURVE",
"422 9 OFFCURVE",
"420 15 CURVE",
"289 400 LINE",
"509 400 LINE",
"515 400 OFFCURVE",
"521 406 OFFCURVE",
"521 412 CURVE",
"521 418 OFFCURVE",
"515 423 OFFCURVE",
"509 423 CURVE"
);
}
);
width = 571;
}
);
unicode = 0054;
},
{
glyphname = U;
lastChange = "2018-03-17 10:33:17 +0000";
layers = (
{
layerId = "10F75160-F472-40CF-9C73-F68C0EB315F4";
paths = (
{
closed = 1;
nodes = (
"539 415 LINE",
"538 421 OFFCURVE",
"531 424 OFFCURVE",
"525 422 CURVE",
"519 420 OFFCURVE",
"516 414 OFFCURVE",
"518 408 CURVE",
"597 155 LINE",
"627 62 OFFCURVE",
"554 27 OFFCURVE",
"541 22 CURVE",
"340 22 LINE",
"254 22 OFFCURVE",
"202 84 OFFCURVE",
"195 93 CURVE",
"72 415 LINE",
"70 421 OFFCURVE",
"63 424 OFFCURVE",
"58 422 CURVE",
"52 420 OFFCURVE",
"49 413 OFFCURVE",
"51 407 CURVE",
"174 83 LINE",
"174 82 OFFCURVE",
"175 81 OFFCURVE",
"175 80 CURVE",
"178 77 OFFCURVE",
"236 0 OFFCURVE",
"340 0 CURVE",
"543 0 LINE",
"544 0 OFFCURVE",
"546 0 OFFCURVE",
"547 0 CURVE",
"548 1 OFFCURVE",
"657 41 OFFCURVE",
"618 161 CURVE"
);
}
);
width = 676;
}
);
unicode = 0055;
},
{
glyphname = V;
lastChange = "2018-03-17 10:33:26 +0000";
layers = (
{
layerId = "10F75160-F472-40CF-9C73-F68C0EB315F4";
paths = (
{
closed = 1;
nodes = (
"553 414 LINE",
"552 420 OFFCURVE",
"546 424 OFFCURVE",
"540 423 CURVE",
"534 421 OFFCURVE",
"530 415 OFFCURVE",
"531 409 CURVE",
"623 22 LINE",
"464 22 LINE",
"70 420 LINE",
"66 424 OFFCURVE",
"58 424 OFFCURVE",
"54 420 CURVE",
"49 415 OFFCURVE",
"49 408 OFFCURVE",
"54 404 CURVE",
"452 3 LINE",
"454 1 OFFCURVE",
"457 0 OFFCURVE",
"460 0 CURVE",
"638 0 LINE",
"641 0 OFFCURVE",
"644 1 OFFCURVE",
"646 4 CURVE",
"649 7 OFFCURVE",
"649 10 OFFCURVE",
"649 14 CURVE"
);
}
);
width = 699;
}
);
unicode = 0056;
},
{
glyphname = W;
lastChange = "2018-03-17 10:33:32 +0000";
layers = (
{
layerId = "10F75160-F472-40CF-9C73-F68C0EB315F4";
paths = (
{
closed = 1;
nodes = (
"764 419 OFFCURVE",
"758 424 OFFCURVE",
"752 423 CURVE",
"746 422 OFFCURVE",
"741 416 OFFCURVE",
"742 410 CURVE",
"799 22 LINE",
"733 22 LINE",
"502 263 LINE",
"476 414 LINE",
"476 419 OFFCURVE",
"471 423 OFFCURVE",
"465 423 CURVE",
"343 423 LINE",
"339 423 OFFCURVE",
"335 420 OFFCURVE",
"333 416 CURVE",
"331 412 OFFCURVE",
"332 407 OFFCURVE",
"335 404 CURVE",
"481 253 LINE",
"519 22 LINE",
"441 22 LINE",
"69 419 LINE",
"65 424 OFFCURVE",
"58 424 OFFCURVE",
"53 420 CURVE",
"49 416 OFFCURVE",
"48 408 OFFCURVE",
"53 404 CURVE",
"428 3 LINE",
"430 1 OFFCURVE",
"433 0 OFFCURVE",
"437 0 CURVE",
"533 0 LINE",
"536 0 OFFCURVE",
"539 1 OFFCURVE",
"542 4 CURVE",
"544 6 OFFCURVE",
"545 10 OFFCURVE",
"544 13 CURVE",
"509 223 LINE",
"720 3 LINE",
"722 1 OFFCURVE",
"725 0 OFFCURVE",
"728 0 CURVE",
"812 0 LINE",
"816 0 OFFCURVE",
"819 1 OFFCURVE",
"821 4 CURVE",
"823 6 OFFCURVE",
"824 10 OFFCURVE",
"824 13 CURVE",
"765 413 LINE"
);
},
{
closed = 1;
nodes = (
"456 400 LINE",
"474 292 LINE",
"370 400 LINE"
);
}
);
width = 874;
}
);
unicode = 0057;
},
{
glyphname = X;
lastChange = "2018-03-17 10:33:37 +0000";
layers = (
{
layerId = "10F75160-F472-40CF-9C73-F68C0EB315F4";
paths = (
{
closed = 1;
nodes = (
"309 233 LINE",
"370 409 LINE",
"372 414 OFFCURVE",
"369 421 OFFCURVE",
"363 423 CURVE",
"357 425 OFFCURVE",
"350 422 OFFCURVE",
"348 416 CURVE",
"290 248 LINE",
"68 421 LINE",
"63 425 OFFCURVE",
"56 424 OFFCURVE",
"52 419 CURVE",
"48 414 OFFCURVE",
"49 407 OFFCURVE",
"54 403 CURVE",
"282 225 LINE",
"209 16 LINE",
"207 10 OFFCURVE",
"210 3 OFFCURVE",
"216 1 CURVE",
"218 1 OFFCURVE",
"219 0 OFFCURVE",
"220 0 CURVE",
"225 0 OFFCURVE",
"229 3 OFFCURVE",
"231 8 CURVE",
"301 210 LINE",
"566 3 LINE",
"568 1 OFFCURVE",
"571 0 OFFCURVE",
"573 0 CURVE",
"577 0 OFFCURVE",
"580 2 OFFCURVE",
"582 5 CURVE",
"586 10 OFFCURVE",
"585 17 OFFCURVE",
"580 21 CURVE"
);
}
);
width = 634;
}
);
unicode = 0058;
},
{
glyphname = Y;
lastChange = "2018-03-17 10:33:41 +0000";
layers = (
{
layerId = "10F75160-F472-40CF-9C73-F68C0EB315F4";
paths = (
{
closed = 1;
nodes = (
"512 425 OFFCURVE",
"505 423 OFFCURVE",
"501 418 CURVE",
"357 217 LINE",
"68 421 LINE",
"63 425 OFFCURVE",
"56 423 OFFCURVE",
"52 418 CURVE",
"49 413 OFFCURVE",
"50 406 OFFCURVE",
"55 402 CURVE",
"350 194 LINE",
"412 8 LINE",
"413 3 OFFCURVE",
"418 0 OFFCURVE",
"422 0 CURVE",
"423 0 OFFCURVE",
"425 0 OFFCURVE",
"426 1 CURVE",
"432 2 OFFCURVE",
"435 9 OFFCURVE",
"433 15 CURVE",
"372 199 LINE",
"520 405 LINE",
"523 410 OFFCURVE",
"522 417 OFFCURVE",
"517 421 CURVE"
);
}
);
width = 572;
}
);
unicode = 0059;
},
{
glyphname = Z;
lastChange = "2018-03-17 10:33:49 +0000";
layers = (
{
layerId = "10F75160-F472-40CF-9C73-F68C0EB315F4";
paths = (
{
closed = 1;
nodes = (
"218 23 LINE",
"506 405 LINE",
"508 408 OFFCURVE",
"509 413 OFFCURVE",
"507 417 CURVE",
"505 421 OFFCURVE",
"501 423 OFFCURVE",
"497 423 CURVE",
"61 423 LINE",
"55 423 OFFCURVE",
"50 418 OFFCURVE",
"50 412 CURVE",
"50 406 OFFCURVE",
"55 400 OFFCURVE",
"61 400 CURVE",
"474 400 LINE",
"186 18 LINE",
"183 15 OFFCURVE",
"183 10 OFFCURVE",
"185 6 CURVE",
"187 2 OFFCURVE",
"191 0 OFFCURVE",
"195 0 CURVE",
"663 0 LINE",
"670 0 OFFCURVE",
"675 5 OFFCURVE",
"675 11 CURVE",
"675 18 OFFCURVE",
"670 23 OFFCURVE",
"663 23 CURVE"
);
}
);
width = 725;
}
);
unicode = 005A;
},
{
glyphname = a;
lastChange = "2018-03-17 10:41:03 +0000";
layers = (
{
layerId = "10F75160-F472-40CF-9C73-F68C0EB315F4";
paths = (
{
closed = 1;
nodes = (
"426 23 OFFCURVE",
"415 78 OFFCURVE",
"415 80 CURVE",
"415 80 OFFCURVE",
"415 81 OFFCURVE",
"415 81 CURVE",
"415 81 OFFCURVE",
"415 81 OFFCURVE",
"415 81 CURVE",
"393 158 LINE",
"393 159 OFFCURVE",
"393 159 OFFCURVE",
"393 159 CURVE",
"371 270 OFFCURVE",
"272 286 OFFCURVE",
"271 286 CURVE",
"271 286 OFFCURVE",
"270 286 OFFCURVE",
"270 286 CURVE",
"108 286 LINE",
"76 286 OFFCURVE",
"52 270 OFFCURVE",
"39 239 CURVE",
"30 217 OFFCURVE",
"30 195 OFFCURVE",
"30 194 CURVE",
"30 188 OFFCURVE",
"35 183 OFFCURVE",
"42 183 CURVE",
"42 183 OFFCURVE",
"42 183 OFFCURVE",
"42 183 CURVE",
"48 183 OFFCURVE",
"53 188 OFFCURVE",
"53 194 CURVE",
"53 195 OFFCURVE",
"53 212 OFFCURVE",
"60 230 CURVE",
"69 253 OFFCURVE",
"85 264 OFFCURVE",
"108 264 CURVE",
"269 264 LINE",
"277 262 OFFCURVE",
"345 247 OFFCURVE",
"368 168 CURVE",
"146 168 LINE",
"143 168 OFFCURVE",
"89 168 OFFCURVE",
"71 134 CURVE",
"60 114 OFFCURVE",
"65 88 OFFCURVE",
"86 56 CURVE",
"88 54 OFFCURVE",
"124 0 OFFCURVE",
"184 0 CURVE",
"332 0 LINE",
"333 0 OFFCURVE",
"333 1 OFFCURVE",
"334 1 CURVE",
"337 1 OFFCURVE",
"384 11 OFFCURVE",
"405 47 CURVE",
"419 25 OFFCURVE",
"447 0 OFFCURVE",
"504 0 CURVE",
"510 0 OFFCURVE",
"515 6 OFFCURVE",
"515 12 CURVE",
"515 18 OFFCURVE",
"510 23 OFFCURVE",
"504 23 CURVE"
);
},
{
closed = 1;
nodes = (
"184 23 LINE",
"136 23 OFFCURVE",
"105 68 OFFCURVE",
"105 69 CURVE",
"94 85 OFFCURVE",
"83 108 OFFCURVE",
"91 123 CURVE",
"101 141 OFFCURVE",
"134 145 OFFCURVE",
"146 145 CURVE",
"373 145 LINE",
"392 78 LINE",
"387 38 OFFCURVE",
"338 25 OFFCURVE",
"331 23 CURVE"
);
}
);
width = 435;
}
);
unicode = 0061;
},
{
glyphname = b;
lastChange = "2018-03-17 10:35:21 +0000";
layers = (
{
layerId = "10F75160-F472-40CF-9C73-F68C0EB315F4";
paths = (
{
closed = 1;
nodes = (
"429 255 OFFCURVE",
"362 285 OFFCURVE",
"360 287 CURVE",
"358 287 OFFCURVE",
"357 288 OFFCURVE",
"355 288 CURVE",
"190 288 LINE",
"189 288 OFFCURVE",
"188 287 OFFCURVE",
"187 287 CURVE",
"185 287 OFFCURVE",
"140 274 OFFCURVE",
"117 233 CURVE",
"114 229 OFFCURVE",
"112 224 OFFCURVE",
"110 219 CURVE",
"53 401 LINE",
"51 407 OFFCURVE",
"45 410 OFFCURVE",
"39 409 CURVE",
"33 407 OFFCURVE",
"29 400 OFFCURVE",
"31 394 CURVE",
"112 138 LINE",
"112 138 OFFCURVE",
"112 138 OFFCURVE",
"112 138 CURVE",
"112 138 OFFCURVE",
"112 138 OFFCURVE",
"112 138 CURVE",
"153 8 LINE",
"155 3 OFFCURVE",
"159 0 OFFCURVE",
"164 0 CURVE",
"165 0 OFFCURVE",
"166 1 OFFCURVE",
"167 1 CURVE",
"173 3 OFFCURVE",
"177 9 OFFCURVE",
"175 15 CURVE",
"167 41 LINE",
"196 10 OFFCURVE",
"223 1 OFFCURVE",
"225 1 CURVE",
"226 1 OFFCURVE",
"227 0 OFFCURVE",
"228 0 CURVE",
"406 0 LINE",
"407 0 OFFCURVE",
"408 1 OFFCURVE",
"410 1 CURVE",
"437 10 OFFCURVE",
"457 27 OFFCURVE",
"468 51 CURVE",
"491 104 OFFCURVE",
"462 173 OFFCURVE",
"461 176 CURVE"
);
},
{
closed = 1;
nodes = (
"439 43 OFFCURVE",
"425 30 OFFCURVE",
"404 23 CURVE",
"230 23 LINE",
"220 27 OFFCURVE",
"163 52 OFFCURVE",
"134 145 CURVE",
"134 145 LINE",
"124 176 OFFCURVE",
"125 201 OFFCURVE",
"137 222 CURVE",
"153 251 OFFCURVE",
"185 263 OFFCURVE",
"191 265 CURVE",
"352 265 LINE",
"363 259 OFFCURVE",
"415 231 OFFCURVE",
"440 167 CURVE",
"440 167 OFFCURVE",
"467 104 OFFCURVE",
"447 60 CURVE"
);
}
);
width = 507;
}
);
unicode = 0062;
},
{
glyphname = c;
lastChange = "2018-03-17 10:35:26 +0000";
layers = (
{
layerId = "10F75160-F472-40CF-9C73-F68C0EB315F4";
paths = (
{
closed = 1;
nodes = (
"424 104 OFFCURVE",
"419 108 OFFCURVE",
"412 106 CURVE",
"406 105 OFFCURVE",
"402 99 OFFCURVE",
"403 93 CURVE",
"412 43 OFFCURVE",
"369 26 OFFCURVE",
"361 23 CURVE",
"167 23 LINE",
"87 24 OFFCURVE",
"58 159 OFFCURVE",
"57 160 CURVE",
"38 239 OFFCURVE",
"89 261 OFFCURVE",
"98 265 CURVE",
"266 265 LINE",
"340 265 OFFCURVE",
"371 193 OFFCURVE",
"372 190 CURVE",
"374 184 OFFCURVE",
"381 182 OFFCURVE",
"387 184 CURVE",
"393 186 OFFCURVE",
"395 193 OFFCURVE",
"393 199 CURVE",
"391 202 OFFCURVE",
"356 287 OFFCURVE",
"266 287 CURVE",
"96 287 LINE",
"95 287 OFFCURVE",
"94 287 OFFCURVE",
"93 287 CURVE",
"92 287 OFFCURVE",
"9 261 OFFCURVE",
"35 155 CURVE",
"37 149 OFFCURVE",
"69 2 OFFCURVE",
"166 0 CURVE",
"362 0 LINE",
"363 0 OFFCURVE",
"365 0 OFFCURVE",
"365 0 CURVE",
"391 8 OFFCURVE",
"437 37 OFFCURVE",
"426 97 CURVE"
);
}
);
width = 458;
}
);
unicode = 0063;
},
{
glyphname = d;
lastChange = "2018-03-17 10:35:45 +0000";
layers = (
{
layerId = "10F75160-F472-40CF-9C73-F68C0EB315F4";
paths = (
{
closed = 1;
nodes = (
"398 142 LINE",
"396 151 OFFCURVE",
"393 159 OFFCURVE",
"391 165 CURVE",
"316 401 LINE",
"314 407 OFFCURVE",
"308 410 OFFCURVE",
"302 409 CURVE",
"296 407 OFFCURVE",
"293 400 OFFCURVE",
"295 394 CURVE",
"342 245 LINE",
"314 274 OFFCURVE",
"287 286 OFFCURVE",
"285 287 CURVE",
"284 287 OFFCURVE",
"282 288 OFFCURVE",
"281 288 CURVE",
"115 288 LINE",
"114 288 OFFCURVE",
"113 287 OFFCURVE",
"112 287 CURVE",
"110 287 OFFCURVE",
"65 274 OFFCURVE",
"43 234 CURVE",
"28 207 OFFCURVE",
"26 175 OFFCURVE",
"38 138 CURVE",
"73 26 OFFCURVE",
"147 2 OFFCURVE",
"150 1 CURVE",
"151 1 OFFCURVE",
"153 0 OFFCURVE",
"154 0 CURVE",
"332 0 LINE",
"333 0 OFFCURVE",
"334 1 OFFCURVE",
"335 1 CURVE",
"365 11 OFFCURVE",
"385 28 OFFCURVE",
"396 53 CURVE",
"397 56 OFFCURVE",
"398 59 OFFCURVE",
"399 62 CURVE",
"417 8 LINE",
"418 3 OFFCURVE",
"423 0 OFFCURVE",
"427 0 CURVE",
"429 0 OFFCURVE",
"430 1 OFFCURVE",
"431 1 CURVE",
"437 3 OFFCURVE",
"440 9 OFFCURVE",
"438 15 CURVE"
);
},
{
closed = 1;
nodes = (
"367 44 OFFCURVE",
"352 31 OFFCURVE",
"330 23 CURVE",
"156 23 LINE",
"146 27 OFFCURVE",
"89 52 OFFCURVE",
"59 145 CURVE",
"50 175 OFFCURVE",
"51 201 OFFCURVE",
"62 222 CURVE",
"78 251 OFFCURVE",
"110 263 OFFCURVE",
"117 265 CURVE",
"278 265 LINE",
"289 260 OFFCURVE",
"340 231 OFFCURVE",
"366 167 CURVE",
"366 167 OFFCURVE",
"367 163 OFFCURVE",
"370 157 CURVE",
"376 136 LINE",
"382 115 OFFCURVE",
"386 86 OFFCURVE",
"375 62 CURVE"
);
}
);
width = 469;
}
);
unicode = 0064;
},
{
glyphname = e;
lastChange = "2018-03-17 10:35:49 +0000";
layers = (
{
layerId = "10F75160-F472-40CF-9C73-F68C0EB315F4";
paths = (
{
closed = 1;
nodes = (
"425 108 OFFCURVE",
"419 104 OFFCURVE",
"417 98 CURVE",
"417 97 OFFCURVE",
"400 23 OFFCURVE",
"345 23 CURVE",
"169 23 LINE",
"161 24 OFFCURVE",
"82 43 OFFCURVE",
"59 146 CURVE",
"400 146 LINE",
"403 146 OFFCURVE",
"406 148 OFFCURVE",
"408 150 CURVE",
"410 152 OFFCURVE",
"412 155 OFFCURVE",
"411 158 CURVE",
"411 159 OFFCURVE",
"405 266 OFFCURVE",
"283 287 CURVE",
"283 287 OFFCURVE",
"282 287 OFFCURVE",
"281 287 CURVE",
"107 287 LINE",
"106 287 OFFCURVE",
"106 287 OFFCURVE",
"105 287 CURVE",
"76 281 OFFCURVE",
"24 253 OFFCURVE",
"31 192 CURVE",
"33 157 LINE",
"33 157 OFFCURVE",
"33 157 OFFCURVE",
"34 156 CURVE",
"34 156 OFFCURVE",
"34 156 OFFCURVE",
"34 156 CURVE",
"56 18 OFFCURVE",
"165 0 OFFCURVE",
"166 0 CURVE",
"167 0 OFFCURVE",
"168 0 OFFCURVE",
"168 0 CURVE",
"345 0 LINE",
"417 0 OFFCURVE",
"438 89 OFFCURVE",
"439 93 CURVE",
"441 99 OFFCURVE",
"437 105 OFFCURVE",
"431 106 CURVE"
);
},
{
closed = 1;
nodes = (
"280 265 LINE",
"361 250 OFFCURVE",
"382 194 OFFCURVE",
"387 169 CURVE",
"55 169 LINE",
"53 194 LINE",
"48 247 OFFCURVE",
"100 263 OFFCURVE",
"108 265 CURVE"
);
}
);
width = 470;
}
);
unicode = 0065;
},
{
glyphname = f;
lastChange = "2018-03-17 10:35:54 +0000";
layers = (
{
layerId = "10F75160-F472-40CF-9C73-F68C0EB315F4";
paths = (
{
closed = 1;
nodes = (
"121 288 LINE",
"102 351 LINE",
"96 371 OFFCURVE",
"97 385 OFFCURVE",
"105 393 CURVE",
"123 411 OFFCURVE",
"182 399 OFFCURVE",
"215 387 CURVE",
"220 385 OFFCURVE",
"227 388 OFFCURVE",
"229 394 CURVE",
"231 400 OFFCURVE",
"228 406 OFFCURVE",
"222 408 CURVE",
"212 412 OFFCURVE",
"124 443 OFFCURVE",
"89 410 CURVE",
"74 396 OFFCURVE",
"71 374 OFFCURVE",
"80 344 CURVE",
"97 288 LINE",
"42 288 LINE",
"35 288 OFFCURVE",
"30 282 OFFCURVE",
"30 276 CURVE",
"30 270 OFFCURVE",
"35 265 OFFCURVE",
"42 265 CURVE",
"104 265 LINE",
"182 8 LINE",
"184 3 OFFCURVE",
"188 0 OFFCURVE",
"193 0 CURVE",
"194 0 OFFCURVE",
"195 0 OFFCURVE",
"196 1 CURVE",
"202 3 OFFCURVE",
"206 9 OFFCURVE",
"204 15 CURVE",
"128 265 LINE",
"253 265 LINE",
"259 265 OFFCURVE",
"264 270 OFFCURVE",
"264 276 CURVE",
"264 282 OFFCURVE",
"259 288 OFFCURVE",
"253 288 CURVE"
);
}
);
width = 294;
}
);
unicode = 0066;
},
{
glyphname = g;
lastChange = "2018-03-17 10:35:58 +0000";
layers = (
{
layerId = "10F75160-F472-40CF-9C73-F68C0EB315F4";
paths = (
{
closed = 1;
nodes = (
"480 -64 OFFCURVE",
"476 -54 OFFCURVE",
"469 -47 CURVE",
"452 -31 OFFCURVE",
"420 -31 OFFCURVE",
"417 -31 CURVE",
"191 -31 LINE",
"165 -31 OFFCURVE",
"159 -25 OFFCURVE",
"158 -23 CURVE",
"156 -17 OFFCURVE",
"161 -6 OFFCURVE",
"167 2 CURVE",
"173 1 OFFCURVE",
"179 0 OFFCURVE",
"185 0 CURVE",
"353 0 LINE",
"353 0 OFFCURVE",
"354 0 OFFCURVE",
"355 0 CURVE",
"357 1 OFFCURVE",
"408 10 OFFCURVE",
"430 53 CURVE",
"445 82 OFFCURVE",
"443 118 OFFCURVE",
"423 160 CURVE",
"423 160 OFFCURVE",
"423 160 OFFCURVE",
"423 160 CURVE",
"423 160 OFFCURVE",
"423 160 OFFCURVE",
"423 160 CURVE",
"417 177 OFFCURVE",
"417 190 OFFCURVE",
"423 199 CURVE",
"433 213 OFFCURVE",
"456 214 OFFCURVE",
"456 214 CURVE",
"462 214 OFFCURVE",
"467 219 OFFCURVE",
"467 226 CURVE",
"467 232 OFFCURVE",
"462 237 OFFCURVE",
"456 237 CURVE",
"456 237 OFFCURVE",
"456 237 OFFCURVE",
"456 237 CURVE",
"454 237 OFFCURVE",
"420 236 OFFCURVE",
"404 212 CURVE",
"403 210 OFFCURVE",
"403 208 OFFCURVE",
"402 207 CURVE",
"382 242 OFFCURVE",
"348 286 OFFCURVE",
"303 286 CURVE",
"108 286 LINE",
"106 286 OFFCURVE",
"63 282 OFFCURVE",
"41 247 CURVE",
"26 223 OFFCURVE",
"26 191 OFFCURVE",
"40 153 CURVE",
"42 148 OFFCURVE",
"75 41 OFFCURVE",
"145 9 CURVE",
"138 -1 OFFCURVE",
"131 -17 OFFCURVE",
"138 -32 CURVE",
"145 -47 OFFCURVE",
"162 -54 OFFCURVE",
"191 -54 CURVE",
"418 -54 LINE",
"425 -54 OFFCURVE",
"444 -55 OFFCURVE",
"453 -64 CURVE",
"456 -67 OFFCURVE",
"458 -70 OFFCURVE",
"458 -76 CURVE",
"458 -77 OFFCURVE",
"458 -79 OFFCURVE",
"455 -82 CURVE",
"452 -85 OFFCURVE",
"443 -91 OFFCURVE",
"417 -91 CURVE",
"117 -91 LINE",
"110 -91 OFFCURVE",
"105 -96 OFFCURVE",
"105 -103 CURVE",
"105 -109 OFFCURVE",
"110 -114 OFFCURVE",
"117 -114 CURVE",
"417 -114 LINE",
"444 -114 OFFCURVE",
"463 -108 OFFCURVE",
"473 -96 CURVE",
"481 -87 OFFCURVE",
"481 -78 OFFCURVE",
"480 -74 CURVE"
);
},
{
closed = 1;
nodes = (
"50 192 OFFCURVE",
"49 217 OFFCURVE",
"60 235 CURVE",
"76 260 OFFCURVE",
"110 263 OFFCURVE",
"109 263 CURVE",
"303 263 LINE",
"352 263 OFFCURVE",
"390 185 OFFCURVE",
"402 153 CURVE",
"402 153 OFFCURVE",
"402 153 OFFCURVE",
"402 152 CURVE",
"402 152 OFFCURVE",
"402 152 OFFCURVE",
"402 152 CURVE",
"402 152 OFFCURVE",
"402 152 OFFCURVE",
"402 151 CURVE",
"419 116 OFFCURVE",
"422 86 OFFCURVE",
"410 64 CURVE",
"395 33 OFFCURVE",
"358 24 OFFCURVE",
"351 23 CURVE",
"185 23 LINE",
"105 23 OFFCURVE",
"62 158 OFFCURVE",
"62 160 CURVE"
);
}
);
width = 510;
}
);
unicode = 0067;
},
{
glyphname = h;
lastChange = "2018-03-17 10:36:02 +0000";
layers = (
{
layerId = "10F75160-F472-40CF-9C73-F68C0EB315F4";
paths = (
{
closed = 1;
nodes = (
"552 25 OFFCURVE",
"480 286 OFFCURVE",
"363 286 CURVE",
"206 286 LINE",
"203 285 OFFCURVE",
"146 278 OFFCURVE",
"114 217 CURVE",
"52 399 LINE",
"50 405 OFFCURVE",
"44 408 OFFCURVE",
"38 406 CURVE",
"32 404 OFFCURVE",
"29 398 OFFCURVE",
"31 392 CURVE",
"160 6 LINE",
"162 1 OFFCURVE",
"166 -2 OFFCURVE",
"171 -2 CURVE",
"172 -2 OFFCURVE",
"173 -1 OFFCURVE",
"175 -1 CURVE",
"181 1 OFFCURVE",
"184 7 OFFCURVE",
"182 13 CURVE",
"124 184 LINE",
"148 255 OFFCURVE",
"206 263 OFFCURVE",
"207 263 CURVE",
"363 263 LINE",
"446 263 OFFCURVE",
"514 79 OFFCURVE",
"533 8 CURVE",
"535 3 OFFCURVE",
"539 0 OFFCURVE",
"544 0 CURVE",
"545 0 OFFCURVE",
"546 0 OFFCURVE",
"547 0 CURVE",
"553 2 OFFCURVE",
"557 8 OFFCURVE",
"555 14 CURVE"
);
}
);
width = 586;
}
);
unicode = 0068;
},
{
glyphname = i;
lastChange = "2018-03-17 10:36:05 +0000";
layers = (
{
layerId = "10F75160-F472-40CF-9C73-F68C0EB315F4";
paths = (
{
closed = 1;
nodes = (
"105 280 LINE",
"103 286 OFFCURVE",
"96 289 OFFCURVE",
"90 287 CURVE",
"84 285 OFFCURVE",
"81 279 OFFCURVE",
"83 273 CURVE",
"176 8 LINE",
"178 3 OFFCURVE",
"182 0 OFFCURVE",
"187 0 CURVE",
"188 0 OFFCURVE",
"190 1 OFFCURVE",
"191 1 CURVE",
"197 3 OFFCURVE",
"200 10 OFFCURVE",
"198 16 CURVE"
);
},
{
closed = 1;
nodes = (
"42 409 LINE",
"35 409 OFFCURVE",
"30 404 OFFCURVE",
"30 398 CURVE",
"30 392 OFFCURVE",
"35 386 OFFCURVE",
"42 386 CURVE",
"68 386 LINE",
"74 386 OFFCURVE",
"79 392 OFFCURVE",
"79 398 CURVE",
"79 404 OFFCURVE",
"74 409 OFFCURVE",
"68 409 CURVE"
);
}
);
width = 229;
}
);
unicode = 0069;
},
{
glyphname = j;
lastChange = "2018-03-17 10:40:00 +0000";
layers = (
{
layerId = "10F75160-F472-40CF-9C73-F68C0EB315F4";
paths = (
{
closed = 1;
nodes = (
"110 284 LINE",
"107 289 OFFCURVE",
"101 293 OFFCURVE",
"95 290 CURVE",
"89 288 OFFCURVE",
"86 282 OFFCURVE",
"88 276 CURVE",
"172 37 LINE",
"172 37 OFFCURVE",
"185 6 OFFCURVE",
"172 -16 CURVE",
"165 -29 OFFCURVE",
"150 -37 OFFCURVE",
"129 -40 CURVE",
"117 -41 OFFCURVE",
"83 -43 OFFCURVE",
"66 -30 CURVE",
"61 -26 OFFCURVE",
"54 -27 OFFCURVE",
"50 -32 CURVE",
"46 -37 OFFCURVE",
"47 -44 OFFCURVE",
"52 -48 CURVE",
"69 -61 OFFCURVE",
"93 -64 OFFCURVE",
"110 -64 CURVE",
"123 -64 OFFCURVE",
"132 -62 OFFCURVE",
"132 -62 CURVE",
"161 -58 OFFCURVE",
"181 -46 OFFCURVE",
"192 -28 CURVE",
"210 4 OFFCURVE",
"194 44 OFFCURVE",
"194 45 CURVE"
);
},
{
closed = 1;
nodes = (
"79 407 OFFCURVE",
"74 413 OFFCURVE",
"67 413 CURVE",
"41 413 LINE",
"35 413 OFFCURVE",
"30 407 OFFCURVE",
"30 401 CURVE",
"30 395 OFFCURVE",
"35 390 OFFCURVE",
"41 390 CURVE",
"67 390 LINE",
"74 390 OFFCURVE",
"79 395 OFFCURVE",
"79 401 CURVE"
);
}
);
width = 231;
}
);
unicode = 006A;
},
{
glyphname = k;
lastChange = "2018-03-17 10:36:14 +0000";
layers = (
{
layerId = "10F75160-F472-40CF-9C73-F68C0EB315F4";
paths = (
{
closed = 1;
nodes = (
"276 160 LINE",
"427 267 LINE",
"432 271 OFFCURVE",
"433 278 OFFCURVE",
"430 283 CURVE",
"426 288 OFFCURVE",
"419 289 OFFCURVE",
"414 285 CURVE",
"250 169 LINE",
"249 169 OFFCURVE",
"249 168 OFFCURVE",
"248 168 CURVE",
"158 104 LINE",
"53 401 LINE",
"51 407 OFFCURVE",
"44 410 OFFCURVE",
"38 408 CURVE",
"32 406 OFFCURVE",
"29 400 OFFCURVE",
"31 394 CURVE",
"167 8 LINE",
"169 3 OFFCURVE",
"173 0 OFFCURVE",
"178 0 CURVE",
"179 0 OFFCURVE",
"181 1 OFFCURVE",
"182 1 CURVE",
"188 3 OFFCURVE",
"191 10 OFFCURVE",
"189 15 CURVE",
"165 81 LINE",
"256 146 LINE",
"497 2 LINE",
"499 1 OFFCURVE",
"501 0 OFFCURVE",
"503 0 CURVE",
"507 0 OFFCURVE",
"510 2 OFFCURVE",
"513 6 CURVE",
"516 11 OFFCURVE",
"514 18 OFFCURVE",
"509 21 CURVE"
);
}
);
width = 544;
}
);
unicode = 006B;
},
{
glyphname = l;
lastChange = "2018-03-17 10:36:19 +0000";
layers = (
{
layerId = "10F75160-F472-40CF-9C73-F68C0EB315F4";
paths = (
{
closed = 1;
nodes = (
"173 0 OFFCURVE",
"168 3 OFFCURVE",
"166 8 CURVE",
"31 394 LINE",
"29 400 OFFCURVE",
"32 406 OFFCURVE",
"38 408 CURVE",
"44 410 OFFCURVE",
"50 407 OFFCURVE",
"52 401 CURVE",
"188 15 LINE",
"190 10 OFFCURVE",
"187 3 OFFCURVE",
"181 1 CURVE",
"180 1 OFFCURVE",
"178 0 OFFCURVE",
"177 0 CURVE"
);
}
);
width = 219;
}
);
unicode = 006C;
},
{
glyphname = m;
lastChange = "2018-03-17 10:36:31 +0000";
layers = (
{
layerId = "10F75160-F472-40CF-9C73-F68C0EB315F4";
paths = (
{
closed = 1;
nodes = (
"708 242 LINE",
"707 243 OFFCURVE",
"689 287 OFFCURVE",
"625 287 CURVE",
"464 287 LINE",
"463 287 OFFCURVE",
"414 286 OFFCURVE",
"396 232 CURVE",
"393 239 OFFCURVE",
"363 287 OFFCURVE",
"301 287 CURVE",
"150 287 LINE",
"148 287 OFFCURVE",
"103 289 OFFCURVE",
"69 236 CURVE",
"52 280 LINE",
"49 286 OFFCURVE",
"43 289 OFFCURVE",
"37 286 CURVE",
"31 284 OFFCURVE",
"28 278 OFFCURVE",
"31 272 CURVE",
"57 205 LINE",
"57 205 OFFCURVE",
"57 205 OFFCURVE",
"57 205 CURVE",
"135 7 LINE",
"137 3 OFFCURVE",
"141 0 OFFCURVE",
"146 0 CURVE",
"147 0 OFFCURVE",
"148 0 OFFCURVE",
"150 1 CURVE",
"156 3 OFFCURVE",
"159 10 OFFCURVE",
"156 15 CURVE",
"80 209 LINE",
"107 265 OFFCURVE",
"147 265 OFFCURVE",
"150 265 CURVE",
"301 265 LINE",
"352 265 OFFCURVE",
"376 223 OFFCURVE",
"376 222 CURVE",
"391 186 LINE",
"391 186 OFFCURVE",
"391 186 OFFCURVE",
"391 186 CURVE",
"466 7 LINE",
"468 3 OFFCURVE",
"472 0 OFFCURVE",
"477 0 CURVE",
"478 0 OFFCURVE",
"480 0 OFFCURVE",
"481 1 CURVE",
"487 3 OFFCURVE",
"490 10 OFFCURVE",
"487 16 CURVE",
"413 193 LINE",
"414 262 OFFCURVE",
"459 264 OFFCURVE",
"464 265 CURVE",
"625 265 LINE",
"673 265 OFFCURVE",
"687 234 OFFCURVE",
"687 233 CURVE",
"787 7 LINE",
"789 3 OFFCURVE",
"793 0 OFFCURVE",
"798 0 CURVE",
"799 0 OFFCURVE",
"801 0 OFFCURVE",
"802 1 CURVE",
"808 4 OFFCURVE",
"811 10 OFFCURVE",
"808 16 CURVE"
);
}
);
width = 839;
}
);
unicode = 006D;
},
{
glyphname = n;
lastChange = "2018-03-17 10:36:35 +0000";
layers = (
{
layerId = "10F75160-F472-40CF-9C73-F68C0EB315F4";
paths = (
{
closed = 1;
nodes = (
"428 192 LINE",
"428 193 OFFCURVE",
"390 287 OFFCURVE",
"289 287 CURVE",
"150 287 LINE",
"124 287 OFFCURVE",
"82 278 OFFCURVE",
"61 249 CURVE",
"52 278 LINE",
"51 284 OFFCURVE",
"44 287 OFFCURVE",
"38 286 CURVE",
"32 284 OFFCURVE",
"29 277 OFFCURVE",
"31 271 CURVE",
"111 8 LINE",
"112 4 OFFCURVE",
"117 0 OFFCURVE",
"122 0 CURVE",
"123 0 OFFCURVE",
"124 1 OFFCURVE",
"125 1 CURVE",
"131 3 OFFCURVE",
"134 9 OFFCURVE",
"132 15 CURVE",
"73 212 LINE",
"74 263 OFFCURVE",
"147 264 OFFCURVE",
"150 264 CURVE",
"289 264 LINE",
"374 264 OFFCURVE",
"406 187 OFFCURVE",
"407 184 CURVE",
"468 8 LINE",
"469 3 OFFCURVE",
"474 0 OFFCURVE",
"479 0 CURVE",
"480 0 OFFCURVE",
"481 1 OFFCURVE",
"482 1 CURVE",
"488 3 OFFCURVE",
"491 10 OFFCURVE",
"489 15 CURVE"
);
}
);
width = 520;
}
);
leftKerningGroup = n;
rightKerningGroup = n;
unicode = 006E;
},
{
glyphname = o;
lastChange = "2018-03-17 10:36:39 +0000";
layers = (
{
layerId = "10F75160-F472-40CF-9C73-F68C0EB315F4";
paths = (
{
closed = 1;
nodes = (
"156 -1 OFFCURVE",
"86 3 OFFCURVE",
"50 101 CURVE",
"48 105 OFFCURVE",
"10 206 OFFCURVE",
"45 257 CURVE",
"58 276 OFFCURVE",
"79 286 OFFCURVE",
"107 286 CURVE",
"238 286 LINE",
"241 286 OFFCURVE",
"305 285 OFFCURVE",
"339 219 CURVE",
"341 215 OFFCURVE",
"408 101 OFFCURVE",
"379 38 CURVE",
"369 17 OFFCURVE",
"351 4 OFFCURVE",
"324 0 CURVE",
"324 0 OFFCURVE",
"323 0 OFFCURVE",
"322 0 CURVE",
"167 0 LINE",
"167 0 OFFCURVE",
"166 -1 OFFCURVE",
"166 -1 CURVE"
);
},
{
closed = 1;
nodes = (
"107 263 LINE",
"86 263 OFFCURVE",
"72 257 OFFCURVE",
"63 244 CURVE",
"40 210 OFFCURVE",
"61 135 OFFCURVE",
"71 109 CURVE",
"104 20 OFFCURVE",
"166 22 OFFCURVE",
"166 22 CURVE",
"321 22 LINE",
"340 26 OFFCURVE",
"352 34 OFFCURVE",
"358 48 CURVE",
"378 91 OFFCURVE",
"336 178 OFFCURVE",
"319 208 CURVE",
"291 262 OFFCURVE",
"240 263 OFFCURVE",
"238 263 CURVE"
);
}
);
width = 416;
}
);
unicode = 006F;
},
{
glyphname = p;
lastChange = "2018-03-17 10:36:43 +0000";
layers = (
{
layerId = "10F75160-F472-40CF-9C73-F68C0EB315F4";
paths = (
{
closed = 1;
nodes = (
"362 285 OFFCURVE",
"293 286 OFFCURVE",
"290 286 CURVE",
"148 286 LINE",
"116 286 OFFCURVE",
"93 275 OFFCURVE",
"79 255 CURVE",
"74 246 OFFCURVE",
"71 237 OFFCURVE",
"68 227 CURVE",
"52 278 LINE",
"50 284 OFFCURVE",
"44 287 OFFCURVE",
"38 285 CURVE",
"32 283 OFFCURVE",
"29 277 OFFCURVE",
"31 271 CURVE",
"135 -56 LINE",
"136 -61 OFFCURVE",
"141 -64 OFFCURVE",
"145 -64 CURVE",
"147 -64 OFFCURVE",
"148 -64 OFFCURVE",
"149 -64 CURVE",
"155 -62 OFFCURVE",
"158 -55 OFFCURVE",
"156 -49 CURVE",
"129 37 LINE",
"165 2 OFFCURVE",
"204 0 OFFCURVE",
"212 0 CURVE",
"213 0 OFFCURVE",
"213 0 OFFCURVE",
"213 0 CURVE",
"382 0 LINE",
"383 0 OFFCURVE",
"384 0 OFFCURVE",
"385 0 CURVE",
"413 7 OFFCURVE",
"431 22 OFFCURVE",
"440 45 CURVE",
"466 111 OFFCURVE",
"401 216 OFFCURVE",
"399 220 CURVE"
);
},
{
closed = 1;
nodes = (
"413 38 OFFCURVE",
"400 28 OFFCURVE",
"381 22 CURVE",
"213 22 LINE",
"210 22 OFFCURVE",
"144 21 OFFCURVE",
"108 109 CURVE",
"97 135 OFFCURVE",
"75 207 OFFCURVE",
"98 242 CURVE",
"108 256 OFFCURVE",
"124 263 OFFCURVE",
"148 263 CURVE",
"290 263 LINE",
"291 263 OFFCURVE",
"349 263 OFFCURVE",
"379 208 CURVE",
"396 180 OFFCURVE",
"437 99 OFFCURVE",
"419 54 CURVE"
);
}
);
width = 476;
}
);
unicode = 0070;
},
{
glyphname = q;
lastChange = "2018-03-17 10:36:48 +0000";
layers = (
{
layerId = "10F75160-F472-40CF-9C73-F68C0EB315F4";
paths = (
{
closed = 1;
nodes = (
"367 279 LINE",
"365 285 OFFCURVE",
"358 288 OFFCURVE",
"352 286 CURVE",
"347 284 OFFCURVE",
"343 278 OFFCURVE",
"345 272 CURVE",
"355 242 LINE",
"313 288 OFFCURVE",
"265 287 OFFCURVE",
"263 287 CURVE",
"94 287 LINE",
"93 287 OFFCURVE",
"92 287 OFFCURVE",
"91 286 CURVE",
"64 279 OFFCURVE",
"45 264 OFFCURVE",
"36 241 CURVE",
"10 176 OFFCURVE",
"75 71 OFFCURVE",
"78 67 CURVE",
"114 1 OFFCURVE",
"183 0 OFFCURVE",
"186 0 CURVE",
"328 0 LINE",
"360 0 OFFCURVE",
"383 11 OFFCURVE",
"397 32 CURVE",
"404 43 OFFCURVE",
"408 56 OFFCURVE",
"410 69 CURVE",
"449 -56 LINE",
"451 -61 OFFCURVE",
"455 -64 OFFCURVE",
"460 -64 CURVE",
"461 -64 OFFCURVE",
"462 -63 OFFCURVE",
"464 -63 CURVE",
"470 -61 OFFCURVE",
"473 -55 OFFCURVE",
"471 -49 CURVE"
);
},
{
closed = 1;
nodes = (
"369 30 OFFCURVE",
"352 23 OFFCURVE",
"328 23 CURVE",
"186 23 LINE",
"185 23 OFFCURVE",
"127 24 OFFCURVE",
"97 78 CURVE",
"80 106 OFFCURVE",
"39 187 OFFCURVE",
"57 233 CURVE",
"63 248 OFFCURVE",
"76 259 OFFCURVE",
"96 264 CURVE",
"264 264 LINE",
"267 264 OFFCURVE",
"333 265 OFFCURVE",
"368 177 CURVE",
"379 152 OFFCURVE",
"401 79 OFFCURVE",
"378 44 CURVE"
);
}
);
width = 502;
}
);
unicode = 0071;
},
{
glyphname = r;
lastChange = "2018-03-17 10:36:51 +0000";
layers = (
{
layerId = "10F75160-F472-40CF-9C73-F68C0EB315F4";
paths = (
{
closed = 1;
nodes = (
"133 287 LINE",
"114 285 OFFCURVE",
"80 276 OFFCURVE",
"61 248 CURVE",
"53 278 LINE",
"51 284 OFFCURVE",
"45 288 OFFCURVE",
"39 286 CURVE",
"33 285 OFFCURVE",
"29 278 OFFCURVE",
"31 272 CURVE",
"102 9 LINE",
"103 4 OFFCURVE",
"108 0 OFFCURVE",
"113 0 CURVE",
"114 0 OFFCURVE",
"115 0 OFFCURVE",
"116 1 CURVE",
"122 2 OFFCURVE",
"125 9 OFFCURVE",
"124 15 CURVE",
"70 214 LINE",
"79 260 OFFCURVE",
"132 264 OFFCURVE",
"134 264 CURVE",
"224 264 LINE",
"289 264 OFFCURVE",
"299 198 OFFCURVE",
"300 195 CURVE",
"300 189 OFFCURVE",
"305 185 OFFCURVE",
"311 185 CURVE",
"311 185 OFFCURVE",
"312 185 OFFCURVE",
"312 185 CURVE",
"318 186 OFFCURVE",
"323 192 OFFCURVE",
"322 198 CURVE",
"318 229 OFFCURVE",
"292 287 OFFCURVE",
"224 287 CURVE"
);
}
);
width = 352;
}
);
unicode = 0072;
},
{
glyphname = s;
lastChange = "2018-03-17 10:36:54 +0000";
layers = (
{
layerId = "10F75160-F472-40CF-9C73-F68C0EB315F4";
paths = (
{
closed = 1;
nodes = (
"159 0 LINE",
"158 0 OFFCURVE",
"157 1 OFFCURVE",
"156 1 CURVE",
"154 2 OFFCURVE",
"89 19 OFFCURVE",
"72 82 CURVE",
"71 88 OFFCURVE",
"74 94 OFFCURVE",
"80 96 CURVE",
"86 97 OFFCURVE",
"92 94 OFFCURVE",
"94 88 CURVE",
"106 42 OFFCURVE",
"153 26 OFFCURVE",
"161 23 CURVE",
"362 23 LINE",
"407 23 OFFCURVE",
"408 64 OFFCURVE",
"409 69 CURVE",
"409 132 OFFCURVE",
"325 139 OFFCURVE",
"322 140 CURVE",
"137 140 LINE",
"54 140 OFFCURVE",
"36 192 OFFCURVE",
"35 194 CURVE",
"28 217 OFFCURVE",
"29 237 OFFCURVE",
"39 253 CURVE",
"53 279 OFFCURVE",
"81 286 OFFCURVE",
"82 286 CURVE",
"83 287 OFFCURVE",
"84 287 OFFCURVE",
"85 287 CURVE",
"290 287 LINE",
"343 287 OFFCURVE",
"367 236 OFFCURVE",
"373 210 CURVE",
"374 204 OFFCURVE",
"370 198 OFFCURVE",
"364 196 CURVE",
"358 195 OFFCURVE",
"352 199 OFFCURVE",
"351 205 CURVE",
"350 207 OFFCURVE",
"337 264 OFFCURVE",
"290 264 CURVE",
"86 264 LINE",
"82 263 OFFCURVE",
"66 257 OFFCURVE",
"58 242 CURVE",
"52 231 OFFCURVE",
"52 217 OFFCURVE",
"57 201 CURVE",
"57 200 OFFCURVE",
"71 162 OFFCURVE",
"137 162 CURVE",
"323 162 LINE",
"361 160 OFFCURVE",
"431 136 OFFCURVE",
"431 69 CURVE",
"431 68 OFFCURVE",
"431 52 OFFCURVE",
"423 35 CURVE",
"415 19 OFFCURVE",
"398 0 OFFCURVE",
"362 0 CURVE"
);
}
);
width = 461;
}
);
unicode = 0073;
},
{
glyphname = t;
lastChange = "2018-03-17 10:36:58 +0000";
layers = (
{
layerId = "10F75160-F472-40CF-9C73-F68C0EB315F4";
paths = (
{
closed = 1;
nodes = (
"166 23 OFFCURVE",
"148 92 OFFCURVE",
"147 95 CURVE",
"96 263 LINE",
"217 263 LINE",
"223 263 OFFCURVE",
"229 268 OFFCURVE",
"229 274 CURVE",
"229 280 OFFCURVE",
"223 285 OFFCURVE",
"217 285 CURVE",
"89 285 LINE",
"52 405 LINE",
"50 411 OFFCURVE",
"44 415 OFFCURVE",
"38 413 CURVE",
"32 411 OFFCURVE",
"29 405 OFFCURVE",
"30 399 CURVE",
"65 285 LINE",
"41 285 LINE",
"35 285 OFFCURVE",
"30 280 OFFCURVE",
"30 274 CURVE",
"30 268 OFFCURVE",
"35 263 OFFCURVE",
"41 263 CURVE",
"72 263 LINE",
"125 89 LINE",
"126 86 OFFCURVE",
"147 1 OFFCURVE",
"297 0 CURVE",
"297 0 OFFCURVE",
"297 0 OFFCURVE",
"297 0 CURVE",
"303 0 OFFCURVE",
"309 5 OFFCURVE",
"309 12 CURVE",
"309 18 OFFCURVE",
"304 23 OFFCURVE",
"297 23 CURVE"
);
}
);
width = 339;
}
);
unicode = 0074;
},
{
glyphname = u;
lastChange = "2018-03-17 10:37:02 +0000";
layers = (
{
layerId = "10F75160-F472-40CF-9C73-F68C0EB315F4";
paths = (
{
closed = 1;
nodes = (
"405 278 LINE",
"403 284 OFFCURVE",
"397 288 OFFCURVE",
"391 286 CURVE",
"385 284 OFFCURVE",
"382 277 OFFCURVE",
"384 271 CURVE",
"446 87 LINE",
"444 38 OFFCURVE",
"390 24 OFFCURVE",
"382 23 CURVE",
"219 23 LINE",
"130 23 OFFCURVE",
"108 79 OFFCURVE",
"108 80 CURVE",
"53 278 LINE",
"51 284 OFFCURVE",
"45 287 OFFCURVE",
"39 286 CURVE",
"33 284 OFFCURVE",
"29 278 OFFCURVE",
"31 272 CURVE",
"86 74 LINE",
"87 71 OFFCURVE",
"113 0 OFFCURVE",
"219 0 CURVE",
"383 0 LINE",
"384 0 OFFCURVE",
"384 0 OFFCURVE",
"385 0 CURVE",
"406 4 OFFCURVE",
"441 19 OFFCURVE",
"458 49 CURVE",
"472 8 LINE",
"474 3 OFFCURVE",
"478 0 OFFCURVE",
"483 0 CURVE",
"484 0 OFFCURVE",
"485 0 OFFCURVE",
"487 1 CURVE",
"492 3 OFFCURVE",
"496 9 OFFCURVE",
"494 15 CURVE"
);
}
);
width = 525;
}
);
unicode = 0075;
},
{
glyphname = v;
lastChange = "2018-03-17 10:37:05 +0000";
layers = (
{
layerId = "10F75160-F472-40CF-9C73-F68C0EB315F4";
paths = (
{
closed = 1;
nodes = (
"330 0 LINE",
"327 0 OFFCURVE",
"324 1 OFFCURVE",
"322 3 CURVE",
"34 266 LINE",
"29 270 OFFCURVE",
"29 277 OFFCURVE",
"33 282 CURVE",
"38 287 OFFCURVE",
"45 287 OFFCURVE",
"49 283 CURVE",
"334 22 LINE",
"454 22 LINE",
"400 272 LINE",
"398 278 OFFCURVE",
"402 284 OFFCURVE",
"408 285 CURVE",
"414 287 OFFCURVE",
"420 283 OFFCURVE",
"422 277 CURVE",
"479 13 LINE",
"479 10 OFFCURVE",
"479 6 OFFCURVE",
"476 4 CURVE",
"474 1 OFFCURVE",
"471 0 OFFCURVE",
"468 0 CURVE"
);
}
);
width = 509;
}
);
unicode = 0076;
},
{
glyphname = w;
lastChange = "2018-03-17 10:37:08 +0000";
layers = (
{
layerId = "10F75160-F472-40CF-9C73-F68C0EB315F4";
paths = (
{
closed = 1;
nodes = (
"648 283 OFFCURVE",
"642 287 OFFCURVE",
"636 286 CURVE",
"630 285 OFFCURVE",
"626 280 OFFCURVE",
"627 274 CURVE",
"662 23 LINE",
"576 23 LINE",
"438 150 LINE",
"407 278 LINE",
"406 283 OFFCURVE",
"401 286 OFFCURVE",
"396 286 CURVE",
"284 286 LINE",
"280 286 OFFCURVE",
"276 284 OFFCURVE",
"274 279 CURVE",
"272 275 OFFCURVE",
"273 270 OFFCURVE",
"277 267 CURVE",
"417 138 LINE",
"445 23 LINE",
"328 23 LINE",
"50 283 LINE",
"45 288 OFFCURVE",
"38 287 OFFCURVE",
"33 283 CURVE",
"29 278 OFFCURVE",
"29 271 OFFCURVE",
"34 267 CURVE",
"315 3 LINE",
"317 1 OFFCURVE",
"320 0 OFFCURVE",
"323 0 CURVE",
"459 0 LINE",
"463 0 OFFCURVE",
"466 2 OFFCURVE",
"468 5 CURVE",
"470 7 OFFCURVE",
"471 11 OFFCURVE",
"470 14 CURVE",
"447 110 LINE",
"563 3 LINE",
"566 1 OFFCURVE",
"568 0 OFFCURVE",
"571 0 CURVE",
"675 0 LINE",
"678 0 OFFCURVE",
"682 2 OFFCURVE",
"684 4 CURVE",
"686 7 OFFCURVE",
"687 10 OFFCURVE",
"686 13 CURVE",
"649 277 LINE"
);
},
{
closed = 1;
nodes = (
"387 264 LINE",
"408 177 LINE",
"314 264 LINE"
);
}
);
width = 716;
}
);
unicode = 0077;
},
{
glyphname = x;
lastChange = "2018-03-17 10:37:12 +0000";
layers = (
{
layerId = "10F75160-F472-40CF-9C73-F68C0EB315F4";
paths = (
{
closed = 1;
nodes = (
"224 156 LINE",
"260 272 LINE",
"262 278 OFFCURVE",
"259 285 OFFCURVE",
"253 286 CURVE",
"247 288 OFFCURVE",
"240 285 OFFCURVE",
"238 279 CURVE",
"205 170 LINE",
"48 285 LINE",
"43 288 OFFCURVE",
"36 287 OFFCURVE",
"32 282 CURVE",
"28 277 OFFCURVE",
"29 270 OFFCURVE",
"35 267 CURVE",
"197 147 LINE",
"156 15 LINE",
"155 9 OFFCURVE",
"158 3 OFFCURVE",
"164 1 CURVE",
"165 0 OFFCURVE",
"166 0 OFFCURVE",
"167 0 CURVE",
"172 0 OFFCURVE",
"177 3 OFFCURVE",
"178 8 CURVE",
"217 133 LINE",
"395 3 LINE",
"397 1 OFFCURVE",
"399 0 OFFCURVE",
"401 0 CURVE",
"405 0 OFFCURVE",
"408 2 OFFCURVE",
"410 5 CURVE",
"414 10 OFFCURVE",
"413 17 OFFCURVE",
"408 21 CURVE"
);
}
);
width = 442;
}
);
unicode = 0078;
},
{
glyphname = y;
lastChange = "2018-03-17 10:37:15 +0000";
layers = (
{
layerId = "10F75160-F472-40CF-9C73-F68C0EB315F4";
paths = (
{
closed = 1;
nodes = (
"467 83 LINE",
"467 83 OFFCURVE",
"467 83 OFFCURVE",
"467 83 CURVE",
"467 83 OFFCURVE",
"467 83 OFFCURVE",
"467 83 CURVE",
"391 279 LINE",
"389 285 OFFCURVE",
"382 288 OFFCURVE",
"377 285 CURVE",
"371 283 OFFCURVE",
"368 276 OFFCURVE",
"370 271 CURVE",
"445 77 LINE",
"444 24 OFFCURVE",
"381 23 OFFCURVE",
"379 23 CURVE",
"213 23 LINE",
"148 23 OFFCURVE",
"132 69 OFFCURVE",
"131 71 CURVE",
"52 279 LINE",
"50 285 OFFCURVE",
"43 288 OFFCURVE",
"37 285 CURVE",
"32 283 OFFCURVE",
"29 277 OFFCURVE",
"31 271 CURVE",
"110 64 LINE",
"111 61 OFFCURVE",
"131 0 OFFCURVE",
"213 0 CURVE",
"379 0 LINE",
"402 0 OFFCURVE",
"441 10 OFFCURVE",
"458 40 CURVE",
"469 9 LINE",
"468 -41 OFFCURVE",
"404 -41 OFFCURVE",
"401 -41 CURVE",
"141 -41 LINE",
"134 -41 OFFCURVE",
"129 -46 OFFCURVE",
"129 -53 CURVE",
"129 -59 OFFCURVE",
"134 -64 OFFCURVE",
"141 -64 CURVE",
"401 -64 LINE",
"402 -64 OFFCURVE",
"446 -64 OFFCURVE",
"473 -38 CURVE",
"486 -25 OFFCURVE",
"492 -8 OFFCURVE",
"492 11 CURVE",
"492 13 OFFCURVE",
"492 14 OFFCURVE",
"491 15 CURVE"
);
}
);
width = 522;
}
);
unicode = 0079;
},
{
glyphname = z;
lastChange = "2018-03-17 10:37:18 +0000";
layers = (
{
layerId = "10F75160-F472-40CF-9C73-F68C0EB315F4";
paths = (
{
closed = 1;
nodes = (
"117 0 LINE",
"113 0 OFFCURVE",
"108 3 OFFCURVE",
"107 7 CURVE",
"105 12 OFFCURVE",
"106 16 OFFCURVE",
"109 20 CURVE",
"345 264 LINE",
"41 264 LINE",
"35 264 OFFCURVE",
"30 269 OFFCURVE",
"30 275 CURVE",
"30 282 OFFCURVE",
"35 287 OFFCURVE",
"41 287 CURVE",
"372 287 LINE",
"377 287 OFFCURVE",
"381 284 OFFCURVE",
"383 280 CURVE",
"384 276 OFFCURVE",
"383 271 OFFCURVE",
"380 267 CURVE",
"144 23 LINE",
"457 23 LINE",
"463 23 OFFCURVE",
"468 18 OFFCURVE",
"468 12 CURVE",
"468 6 OFFCURVE",
"463 0 OFFCURVE",
"457 0 CURVE"
);
}
);
width = 498;
}
);
unicode = 007A;
},
{
glyphname = zero;
lastChange = "2018-03-17 10:37:27 +0000";
layers = (
{
layerId = "10F75160-F472-40CF-9C73-F68C0EB315F4";
paths = (
{
closed = 1;
nodes = (
"237 0 OFFCURVE",
"135 6 OFFCURVE",
"80 151 CURVE",
"78 157 OFFCURVE",
"20 308 OFFCURVE",
"72 383 CURVE",
"91 411 OFFCURVE",
"121 425 OFFCURVE",
"162 425 CURVE",
"362 425 LINE",
"366 425 OFFCURVE",
"460 424 OFFCURVE",
"510 326 CURVE",
"514 320 OFFCURVE",
"620 150 OFFCURVE",
"577 57 CURVE",
"563 25 OFFCURVE",
"534 6 OFFCURVE",
"492 0 CURVE",
"492 0 OFFCURVE",
"491 0 OFFCURVE",
"491 0 CURVE",
"253 0 LINE",
"253 0 OFFCURVE",
"253 0 OFFCURVE",
"252 0 CURVE"
);
},
{
closed = 1;
nodes = (
"128 402 OFFCURVE",
"105 392 OFFCURVE",
"90 371 CURVE",
"46 305 OFFCURVE",
"101 160 OFFCURVE",
"101 159 CURVE",
"154 20 OFFCURVE",
"252 23 OFFCURVE",
"253 23 CURVE",
"490 23 LINE",
"524 28 OFFCURVE",
"546 42 OFFCURVE",
"557 66 CURVE",
"594 148 OFFCURVE",
"491 313 OFFCURVE",
"490 315 CURVE",
"447 401 OFFCURVE",
"363 402 OFFCURVE",
"362 402 CURVE",
"162 402 LINE"
);
}
);
width = 637;
}
);
unicode = 0030;
},
{
glyphname = one;
lastChange = "2018-03-17 10:37:30 +0000";
layers = (
{
layerId = "10F75160-F472-40CF-9C73-F68C0EB315F4";
paths = (
{
closed = 1;
nodes = (
"322 22 LINE",
"189 415 LINE",
"188 419 OFFCURVE",
"185 422 OFFCURVE",
"180 422 CURVE",
"176 423 OFFCURVE",
"172 421 OFFCURVE",
"170 418 CURVE",
"52 268 LINE",
"48 263 OFFCURVE",
"49 256 OFFCURVE",
"54 252 CURVE",
"59 248 OFFCURVE",
"66 249 OFFCURVE",
"70 254 CURVE",
"174 388 LINE",
"298 22 LINE",
"133 22 LINE",
"126 22 OFFCURVE",
"121 17 OFFCURVE",
"121 10 CURVE",
"121 4 OFFCURVE",
"126 -1 OFFCURVE",
"133 -1 CURVE",
"463 -1 LINE",
"470 -1 OFFCURVE",
"475 4 OFFCURVE",
"475 10 CURVE",
"475 17 OFFCURVE",
"470 22 OFFCURVE",
"463 22 CURVE"
);
}
);
width = 525;
}
);
unicode = 0031;
},
{
glyphname = two;
lastChange = "2018-03-17 10:37:33 +0000";
layers = (
{
layerId = "10F75160-F472-40CF-9C73-F68C0EB315F4";
paths = (
{
closed = 1;
nodes = (
"220 23 LINE",
"519 215 LINE",
"522 216 OFFCURVE",
"523 218 OFFCURVE",
"524 221 CURVE",
"544 278 OFFCURVE",
"542 325 OFFCURVE",
"518 361 CURVE",
"481 418 OFFCURVE",
"405 424 OFFCURVE",
"400 425 CURVE",
"158 425 LINE",
"127 425 OFFCURVE",
"102 415 OFFCURVE",
"83 396 CURVE",
"49 361 OFFCURVE",
"50 307 OFFCURVE",
"50 305 CURVE",
"51 299 OFFCURVE",
"56 294 OFFCURVE",
"62 294 CURVE",
"68 294 OFFCURVE",
"73 299 OFFCURVE",
"73 306 CURVE",
"73 306 OFFCURVE",
"72 352 OFFCURVE",
"100 380 CURVE",
"114 395 OFFCURVE",
"133 402 OFFCURVE",
"158 402 CURVE",
"400 402 LINE",
"400 402 OFFCURVE",
"469 396 OFFCURVE",
"499 349 CURVE",
"519 320 OFFCURVE",
"520 280 OFFCURVE",
"504 232 CURVE",
"176 21 LINE",
"171 18 OFFCURVE",
"169 13 OFFCURVE",
"171 8 CURVE",
"172 3 OFFCURVE",
"177 0 OFFCURVE",
"182 0 CURVE",
"600 0 LINE",
"607 0 OFFCURVE",
"612 5 OFFCURVE",
"612 11 CURVE",
"612 18 OFFCURVE",
"607 23 OFFCURVE",
"600 23 CURVE"
);
}
);
width = 662;
}
);
unicode = 0032;
},
{
glyphname = three;
lastChange = "2018-03-17 10:37:37 +0000";
layers = (
{
layerId = "10F75160-F472-40CF-9C73-F68C0EB315F4";
paths = (
{
closed = 1;
nodes = (
"573 188 OFFCURVE",
"521 217 OFFCURVE",
"484 228 CURVE",
"508 252 OFFCURVE",
"511 296 OFFCURVE",
"511 299 CURVE",
"513 415 OFFCURVE",
"401 425 OFFCURVE",
"399 425 CURVE",
"144 425 LINE",
"105 425 OFFCURVE",
"78 413 OFFCURVE",
"63 391 CURVE",
"37 353 OFFCURVE",
"59 298 OFFCURVE",
"60 295 CURVE",
"63 290 OFFCURVE",
"69 287 OFFCURVE",
"75 289 CURVE",
"81 291 OFFCURVE",
"84 298 OFFCURVE",
"81 304 CURVE",
"81 304 OFFCURVE",
"63 350 OFFCURVE",
"82 379 CURVE",
"93 394 OFFCURVE",
"113 402 OFFCURVE",
"144 402 CURVE",
"399 402 LINE",
"402 402 OFFCURVE",
"490 394 OFFCURVE",
"489 300 CURVE",
"489 300 OFFCURVE",
"484 236 OFFCURVE",
"447 236 CURVE",
"228 236 LINE",
"222 236 OFFCURVE",
"217 231 OFFCURVE",
"217 224 CURVE",
"217 218 OFFCURVE",
"222 213 OFFCURVE",
"228 213 CURVE",
"446 213 LINE",
"453 213 OFFCURVE",
"548 205 OFFCURVE",
"561 114 CURVE",
"563 99 OFFCURVE",
"566 56 OFFCURVE",
"548 35 CURVE",
"541 27 OFFCURVE",
"532 23 OFFCURVE",
"519 23 CURVE",
"221 23 LINE",
"221 23 OFFCURVE",
"163 17 OFFCURVE",
"129 111 CURVE",
"127 117 OFFCURVE",
"121 120 OFFCURVE",
"115 118 CURVE",
"109 116 OFFCURVE",
"106 110 OFFCURVE",
"108 104 CURVE",
"143 7 OFFCURVE",
"202 0 OFFCURVE",
"218 0 CURVE",
"221 0 OFFCURVE",
"223 0 OFFCURVE",
"223 0 CURVE",
"519 0 LINE",
"538 0 OFFCURVE",
"554 7 OFFCURVE",
"566 21 CURVE",
"594 54 OFFCURVE",
"584 115 OFFCURVE",
"583 118 CURVE"
);
}
);
width = 636;
}
);
unicode = 0033;
},
{
glyphname = four;
lastChange = "2018-03-17 10:37:40 +0000";
layers = (
{
layerId = "10F75160-F472-40CF-9C73-F68C0EB315F4";
paths = (
{
closed = 1;
nodes = (
"459 23 LINE",
"411 161 LINE",
"510 161 LINE",
"517 161 OFFCURVE",
"522 166 OFFCURVE",
"522 172 CURVE",
"522 179 OFFCURVE",
"517 184 OFFCURVE",
"510 184 CURVE",
"404 184 LINE",
"324 417 LINE",
"322 422 OFFCURVE",
"318 425 OFFCURVE",
"313 425 CURVE",
"136 425 LINE",
"131 425 OFFCURVE",
"127 421 OFFCURVE",
"125 417 CURVE",
"50 176 LINE",
"49 172 OFFCURVE",
"50 169 OFFCURVE",
"52 166 CURVE",
"54 163 OFFCURVE",
"57 161 OFFCURVE",
"61 161 CURVE",
"387 161 LINE",
"435 23 LINE",
"286 23 LINE",
"279 23 OFFCURVE",
"274 18 OFFCURVE",
"274 11 CURVE",
"274 5 OFFCURVE",
"279 0 OFFCURVE",
"286 0 CURVE",
"570 0 LINE",
"577 0 OFFCURVE",
"582 5 OFFCURVE",
"582 11 CURVE",
"582 18 OFFCURVE",
"577 23 OFFCURVE",
"570 23 CURVE"
);
},
{
closed = 1;
nodes = (
"145 402 LINE",
"305 402 LINE",
"380 184 LINE",
"76 184 LINE"
);
}
);
width = 632;
}
);
unicode = 0034;
},
{
glyphname = five;
lastChange = "2018-03-17 10:37:47 +0000";
layers = (
{
layerId = "10F75160-F472-40CF-9C73-F68C0EB315F4";
paths = (
{
closed = 1;
nodes = (
"527 235 OFFCURVE",
"446 236 OFFCURVE",
"442 236 CURVE",
"133 236 LINE",
"77 402 LINE",
"451 402 LINE",
"458 402 OFFCURVE",
"463 407 OFFCURVE",
"463 413 CURVE",
"463 420 OFFCURVE",
"458 425 OFFCURVE",
"451 425 CURVE",
"61 425 LINE",
"58 425 OFFCURVE",
"54 423 OFFCURVE",
"52 420 CURVE",
"50 417 OFFCURVE",
"49 413 OFFCURVE",
"50 410 CURVE",
"114 221 LINE",
"116 216 OFFCURVE",
"120 213 OFFCURVE",
"125 213 CURVE",
"442 213 LINE",
"443 213 OFFCURVE",
"517 212 OFFCURVE",
"551 169 CURVE",
"569 146 OFFCURVE",
"574 116 OFFCURVE",
"566 79 CURVE",
"565 76 OFFCURVE",
"549 23 OFFCURVE",
"502 23 CURVE",
"291 23 LINE",
"290 23 OFFCURVE",
"202 24 OFFCURVE",
"158 141 CURVE",
"156 147 OFFCURVE",
"149 149 OFFCURVE",
"143 147 CURVE",
"137 145 OFFCURVE",
"134 138 OFFCURVE",
"137 133 CURVE",
"187 2 OFFCURVE",
"287 0 OFFCURVE",
"291 0 CURVE",
"502 0 LINE",
"566 0 OFFCURVE",
"587 69 OFFCURVE",
"588 73 CURVE",
"598 118 OFFCURVE",
"592 155 OFFCURVE",
"569 183 CURVE"
);
}
);
width = 643;
}
);
unicode = 0035;
},
{
glyphname = six;
lastChange = "2018-03-17 10:37:50 +0000";
layers = (
{
layerId = "10F75160-F472-40CF-9C73-F68C0EB315F4";
paths = (
{
closed = 1;
nodes = (
"596 161 OFFCURVE",
"563 236 OFFCURVE",
"438 236 CURVE",
"220 236 LINE",
"219 236 OFFCURVE",
"219 236 OFFCURVE",
"218 236 CURVE",
"193 232 OFFCURVE",
"151 215 OFFCURVE",
"134 174 CURVE",
"78 317 LINE",
"72 331 OFFCURVE",
"72 343 OFFCURVE",
"77 356 CURVE",
"88 382 OFFCURVE",
"123 398 OFFCURVE",
"131 402 CURVE",
"374 402 LINE",
"454 402 OFFCURVE",
"504 308 OFFCURVE",
"505 307 CURVE",
"508 302 OFFCURVE",
"515 300 OFFCURVE",
"520 303 CURVE",
"526 306 OFFCURVE",
"528 312 OFFCURVE",
"525 318 CURVE",
"523 322 OFFCURVE",
"468 425 OFFCURVE",
"374 425 CURVE",
"129 425 LINE",
"128 425 OFFCURVE",
"126 424 OFFCURVE",
"125 424 CURVE",
"123 423 OFFCURVE",
"72 404 OFFCURVE",
"56 364 CURVE",
"48 347 OFFCURVE",
"49 328 OFFCURVE",
"57 309 CURVE",
"127 131 LINE",
"127 130 OFFCURVE",
"127 130 OFFCURVE",
"127 129 CURVE",
"148 76 LINE",
"150 73 OFFCURVE",
"186 0 OFFCURVE",
"270 0 CURVE",
"540 0 LINE",
"541 0 OFFCURVE",
"543 0 OFFCURVE",
"544 1 CURVE",
"546 2 OFFCURVE",
"589 21 OFFCURVE",
"605 64 CURVE",
"616 93 OFFCURVE",
"613 124 OFFCURVE",
"598 158 CURVE"
);
},
{
closed = 1;
nodes = (
"573 43 OFFCURVE",
"545 27 OFFCURVE",
"537 23 CURVE",
"270 23 LINE",
"201 23 OFFCURVE",
"170 83 OFFCURVE",
"169 85 CURVE",
"149 136 LINE",
"150 199 OFFCURVE",
"213 212 OFFCURVE",
"221 213 CURVE",
"438 213 LINE",
"547 213 OFFCURVE",
"576 152 OFFCURVE",
"577 149 CURVE",
"590 121 OFFCURVE",
"593 95 OFFCURVE",
"584 73 CURVE"
);
}
);
width = 662;
}
);
unicode = 0036;
},
{
glyphname = seven;
lastChange = "2018-03-17 10:38:18 +0000";
layers = (
{
layerId = "10F75160-F472-40CF-9C73-F68C0EB315F4";
paths = (
{
closed = 1;
nodes = (
"519 423 OFFCURVE",
"516 425 OFFCURVE",
"512 425 CURVE",
"61 425 LINE",
"55 425 OFFCURVE",
"50 420 OFFCURVE",
"50 413 CURVE",
"50 407 OFFCURVE",
"55 402 OFFCURVE",
"61 402 CURVE",
"496 402 LINE",
"368 23 LINE",
"224 23 LINE",
"218 23 OFFCURVE",
"213 18 OFFCURVE",
"213 11 CURVE",
"213 5 OFFCURVE",
"218 0 OFFCURVE",
"224 0 CURVE",
"505 0 LINE",
"511 0 OFFCURVE",
"517 5 OFFCURVE",
"517 11 CURVE",
"517 18 OFFCURVE",
"511 23 OFFCURVE",
"505 23 CURVE",
"392 23 LINE",
"523 410 LINE",
"524 413 OFFCURVE",
"523 417 OFFCURVE",
"521 420 CURVE"
);
}
);
width = 573;
}
);
unicode = 0037;
},
{
glyphname = eight;
lastChange = "2018-03-17 10:38:01 +0000";
layers = (
{
layerId = "10F75160-F472-40CF-9C73-F68C0EB315F4";
paths = (
{
closed = 1;
nodes = (
"566 160 OFFCURVE",
"539 220 OFFCURVE",
"465 233 CURVE",
"490 258 OFFCURVE",
"514 298 OFFCURVE",
"498 346 CURVE",
"498 347 OFFCURVE",
"471 425 OFFCURVE",
"390 425 CURVE",
"115 425 LINE",
"114 425 OFFCURVE",
"113 424 OFFCURVE",
"112 424 CURVE",
"111 424 OFFCURVE",
"74 414 OFFCURVE",
"58 379 CURVE",
"45 351 OFFCURVE",
"49 316 OFFCURVE",
"69 276 CURVE",
"70 274 OFFCURVE",
"89 231 OFFCURVE",
"146 217 CURVE",
"133 208 OFFCURVE",
"119 194 OFFCURVE",
"112 175 CURVE",
"101 148 OFFCURVE",
"105 119 OFFCURVE",
"122 86 CURVE",
"124 83 OFFCURVE",
"165 0 OFFCURVE",
"263 0 CURVE",
"492 0 LINE",
"493 0 OFFCURVE",
"495 0 OFFCURVE",
"496 0 CURVE",
"498 1 OFFCURVE",
"547 16 OFFCURVE",
"569 60 CURVE",
"583 87 OFFCURVE",
"582 120 OFFCURVE",
"567 157 CURVE"
);
},
{
closed = 1;
nodes = (
"73 320 OFFCURVE",
"69 348 OFFCURVE",
"78 369 CURVE",
"89 391 OFFCURVE",
"111 400 OFFCURVE",
"117 402 CURVE",
"390 402 LINE",
"454 402 OFFCURVE",
"476 342 OFFCURVE",
"476 339 CURVE",
"495 283 OFFCURVE",
"445 244 OFFCURVE",
"433 236 CURVE",
"183 236 LINE",
"112 236 OFFCURVE",
"90 283 OFFCURVE",
"89 286 CURVE"
);
},
{
closed = 1;
nodes = (
"533 38 OFFCURVE",
"498 25 OFFCURVE",
"491 23 CURVE",
"263 23 LINE",
"180 23 OFFCURVE",
"144 93 OFFCURVE",
"142 97 CURVE",
"128 123 OFFCURVE",
"125 146 OFFCURVE",
"133 166 CURVE",
"144 196 OFFCURVE",
"178 210 OFFCURVE",
"185 213 CURVE",
"436 213 LINE",
"517 213 OFFCURVE",
"545 151 OFFCURVE",
"546 148 CURVE",
"559 118 OFFCURVE",
"559 92 OFFCURVE",
"549 70 CURVE"
);
}
);
width = 629;
}
);
unicode = 0038;
},
{
glyphname = nine;
lastChange = "2018-03-17 10:38:06 +0000";
layers = (
{
layerId = "10F75160-F472-40CF-9C73-F68C0EB315F4";
paths = (
{
closed = 1;
nodes = (
"543 224 LINE",
"500 422 OFFCURVE",
"397 425 OFFCURVE",
"392 425 CURVE",
"113 425 LINE",
"110 425 OFFCURVE",
"108 424 OFFCURVE",
"106 422 CURVE",
"105 421 OFFCURVE",
"8 344 OFFCURVE",
"72 248 CURVE",
"74 244 OFFCURVE",
"131 161 OFFCURVE",
"224 161 CURVE",
"408 161 LINE",
"409 161 OFFCURVE",
"487 165 OFFCURVE",
"517 235 CURVE",
"519 230 OFFCURVE",
"520 224 OFFCURVE",
"521 219 CURVE",
"558 96 LINE",
"558 96 OFFCURVE",
"568 70 OFFCURVE",
"554 50 CURVE",
"542 32 OFFCURVE",
"513 23 OFFCURVE",
"471 23 CURVE",
"229 23 LINE",
"221 25 OFFCURVE",
"163 40 OFFCURVE",
"143 110 CURVE",
"141 117 OFFCURVE",
"135 120 OFFCURVE",
"129 118 CURVE",
"123 116 OFFCURVE",
"119 110 OFFCURVE",
"121 104 CURVE",
"147 16 OFFCURVE",
"223 1 OFFCURVE",
"226 0 CURVE",
"227 0 OFFCURVE",
"227 0 OFFCURVE",
"228 0 CURVE",
"471 0 LINE",
"521 0 OFFCURVE",
"556 13 OFFCURVE",
"573 38 CURVE",
"593 67 OFFCURVE",
"580 102 OFFCURVE",
"580 103 CURVE"
);
},
{
closed = 1;
nodes = (
"224 184 LINE",
"143 184 OFFCURVE",
"91 260 OFFCURVE",
"91 260 CURVE",
"43 331 OFFCURVE",
"102 389 OFFCURVE",
"117 402 CURVE",
"392 402 LINE",
"393 402 OFFCURVE",
"461 399 OFFCURVE",
"505 277 CURVE",
"494 188 OFFCURVE",
"411 184 OFFCURVE",
"408 184 CURVE"
);
}
);
width = 634;
}
);
unicode = 0039;
},
{
glyphname = colon;
lastChange = "2018-03-17 10:38:24 +0000";
layers = (
{
layerId = "10F75160-F472-40CF-9C73-F68C0EB315F4";
paths = (
{
closed = 1;
nodes = (
"61 285 LINE",
"55 285 OFFCURVE",
"50 280 OFFCURVE",
"50 274 CURVE",
"50 267 OFFCURVE",
"55 262 OFFCURVE",
"61 262 CURVE",
"123 262 LINE",
"129 262 OFFCURVE",
"134 267 OFFCURVE",
"134 274 CURVE",
"134 280 OFFCURVE",
"129 285 OFFCURVE",
"123 285 CURVE"
);
},
{
closed = 1;
nodes = (
"152 23 LINE",
"146 23 OFFCURVE",
"141 18 OFFCURVE",
"141 12 CURVE",
"141 6 OFFCURVE",
"146 0 OFFCURVE",
"152 0 CURVE",
"214 0 LINE",
"220 0 OFFCURVE",
"225 6 OFFCURVE",
"225 12 CURVE",
"225 18 OFFCURVE",
"220 23 OFFCURVE",
"214 23 CURVE"
);
}
);
width = 275;
}
);
unicode = 003A;
},
{
glyphname = comma;
lastChange = "2018-03-17 10:38:27 +0000";
layers = (
{
layerId = "10F75160-F472-40CF-9C73-F68C0EB315F4";
paths = (
{
closed = 1;
nodes = (
"142 19 OFFCURVE",
"138 22 OFFCURVE",
"133 22 CURVE",
"61 22 LINE",
"55 22 OFFCURVE",
"50 17 OFFCURVE",
"50 11 CURVE",
"50 5 OFFCURVE",
"55 0 OFFCURVE",
"61 0 CURVE",
"125 0 LINE",
"126 -10 OFFCURVE",
"126 -27 OFFCURVE",
"111 -38 CURVE",
"106 -42 OFFCURVE",
"105 -49 OFFCURVE",
"108 -54 CURVE",
"111 -57 OFFCURVE",
"114 -59 OFFCURVE",
"117 -59 CURVE",
"120 -59 OFFCURVE",
"122 -58 OFFCURVE",
"124 -56 CURVE",
"153 -35 OFFCURVE",
"150 0 OFFCURVE",
"144 15 CURVE"
);
}
);
width = 198;
}
);
unicode = 002C;
},
{
glyphname = exclam;
lastChange = "2018-03-17 10:38:32 +0000";
layers = (
{
layerId = "10F75160-F472-40CF-9C73-F68C0EB315F4";
paths = (
{
closed = 1;
nodes = (
"160 23 LINE",
"154 23 OFFCURVE",
"149 18 OFFCURVE",
"149 12 CURVE",
"149 5 OFFCURVE",
"154 0 OFFCURVE",
"160 0 CURVE",
"222 0 LINE",
"228 0 OFFCURVE",
"234 5 OFFCURVE",
"234 12 CURVE",
"234 18 OFFCURVE",
"228 23 OFFCURVE",
"222 23 CURVE"
);
},
{
closed = 1;
nodes = (
"172 56 OFFCURVE",
"173 57 OFFCURVE",
"175 57 CURVE",
"181 59 OFFCURVE",
"184 65 OFFCURVE",
"182 71 CURVE",
"72 421 LINE",
"70 427 OFFCURVE",
"64 431 OFFCURVE",
"58 429 CURVE",
"52 427 OFFCURVE",
"49 420 OFFCURVE",
"51 414 CURVE",
"160 64 LINE",
"162 60 OFFCURVE",
"166 56 OFFCURVE",
"171 56 CURVE"
);
}
);
width = 284;
}
);
unicode = 0021;
},
{
glyphname = period;
lastChange = "2018-03-17 10:38:38 +0000";
layers = (
{
layerId = "10F75160-F472-40CF-9C73-F68C0EB315F4";
paths = (
{
closed = 1;
nodes = (
"62 0 LINE",
"55 0 OFFCURVE",
"50 6 OFFCURVE",
"50 12 CURVE",
"50 18 OFFCURVE",
"55 23 OFFCURVE",
"62 23 CURVE",
"124 23 LINE",
"130 23 OFFCURVE",
"135 18 OFFCURVE",
"135 12 CURVE",
"135 6 OFFCURVE",
"130 0 OFFCURVE",
"124 0 CURVE"
);
}
);
width = 185;
}
);
unicode = 002E;
},
{
glyphname = question;
lastChange = "2018-03-17 11:23:24 +0000";
layers = (
{
layerId = "10F75160-F472-40CF-9C73-F68C0EB315F4";
paths = (
{
closed = 1;
nodes = (
"210 23 LINE",
"204 23 OFFCURVE",
"199 18 OFFCURVE",
"199 12 CURVE",
"199 6 OFFCURVE",
"204 0 OFFCURVE",
"210 0 CURVE",
"272 0 LINE",
"279 0 OFFCURVE",
"284 6 OFFCURVE",
"284 12 CURVE",
"284 18 OFFCURVE",
"279 23 OFFCURVE",
"272 23 CURVE"
);
},
{
closed = 1;
nodes = (
"406 428 OFFCURVE",
"296 429 OFFCURVE",
"291 429 CURVE",
"129 429 LINE",
"57 429 OFFCURVE",
"50 319 OFFCURVE",
"50 315 CURVE",
"50 308 OFFCURVE",
"54 303 OFFCURVE",
"61 303 CURVE",
"67 302 OFFCURVE",
"72 307 OFFCURVE",
"73 313 CURVE",
"73 314 OFFCURVE",
"79 407 OFFCURVE",
"129 407 CURVE",
"291 407 LINE",
"292 407 OFFCURVE",
"388 405 OFFCURVE",
"405 336 CURVE",
"405 335 OFFCURVE",
"422 262 OFFCURVE",
"374 244 CURVE",
"186 154 LINE",
"181 151 OFFCURVE",
"179 145 OFFCURVE",
"181 139 CURVE",
"209 73 LINE",
"211 69 OFFCURVE",
"215 66 OFFCURVE",
"219 66 CURVE",
"221 66 OFFCURVE",
"222 67 OFFCURVE",
"224 67 CURVE",
"230 70 OFFCURVE",
"232 76 OFFCURVE",
"230 82 CURVE",
"206 138 LINE",
"383 223 LINE",
"449 248 OFFCURVE",
"428 338 OFFCURVE",
"427 342 CURVE"
);
}
);
width = 481;
}
);
unicode = 003F;
},
{
glyphname = quotesingle;
lastChange = "2018-03-17 10:38:43 +0000";
layers = (
{
layerId = "10F75160-F472-40CF-9C73-F68C0EB315F4";
paths = (
{
closed = 1;
nodes = (
"142 434 OFFCURVE",
"138 437 OFFCURVE",
"133 437 CURVE",
"61 437 LINE",
"55 437 OFFCURVE",
"50 432 OFFCURVE",
"50 426 CURVE",
"50 420 OFFCURVE",
"55 415 OFFCURVE",
"61 415 CURVE",
"124 415 LINE",
"126 405 OFFCURVE",
"126 388 OFFCURVE",
"110 377 CURVE",
"105 373 OFFCURVE",
"104 366 OFFCURVE",
"108 361 CURVE",
"110 358 OFFCURVE",
"114 356 OFFCURVE",
"117 356 CURVE",
"119 356 OFFCURVE",
"122 357 OFFCURVE",
"124 359 CURVE",
"153 380 OFFCURVE",
"150 415 OFFCURVE",
"144 430 CURVE"
);
}
);
width = 198;
}
);
unicode = 0027;
},
{
glyphname = semicolon;
lastChange = "2018-03-17 10:38:47 +0000";
layers = (
{
layerId = "10F75160-F472-40CF-9C73-F68C0EB315F4";
paths = (
{
closed = 1;
nodes = (
"224 20 OFFCURVE",
"219 23 OFFCURVE",
"215 23 CURVE",
"143 23 LINE",
"136 23 OFFCURVE",
"131 18 OFFCURVE",
"131 12 CURVE",
"131 6 OFFCURVE",
"136 0 OFFCURVE",
"143 0 CURVE",
"206 0 LINE",
"208 -9 OFFCURVE",
"208 -26 OFFCURVE",
"192 -37 CURVE",
"187 -41 OFFCURVE",
"186 -48 OFFCURVE",
"190 -53 CURVE",
"192 -56 OFFCURVE",
"195 -58 OFFCURVE",
"199 -58 CURVE",
"201 -58 OFFCURVE",
"203 -57 OFFCURVE",
"205 -55 CURVE",
"235 -34 OFFCURVE",
"231 1 OFFCURVE",
"225 16 CURVE"
);
},
{
closed = 1;
nodes = (
"61 285 LINE",
"55 285 OFFCURVE",
"50 280 OFFCURVE",
"50 274 CURVE",
"50 267 OFFCURVE",
"55 262 OFFCURVE",
"61 262 CURVE",
"123 262 LINE",
"129 262 OFFCURVE",
"134 267 OFFCURVE",
"134 274 CURVE",
"134 280 OFFCURVE",
"129 285 OFFCURVE",
"123 285 CURVE"
);
}
);
width = 279;
}
);
unicode = 003B;
},
{
glyphname = braceleft;
lastChange = "2018-03-17 10:38:51 +0000";
layers = (
{
layerId = "10F75160-F472-40CF-9C73-F68C0EB315F4";
paths = (
{
closed = 1;
nodes = (
"489 23 LINE",
"438 212 LINE",
"704 212 LINE",
"710 212 OFFCURVE",
"715 217 OFFCURVE",
"715 223 CURVE",
"715 229 OFFCURVE",
"710 234 OFFCURVE",
"704 234 CURVE",
"432 234 LINE",
"387 401 LINE",
"802 401 LINE",
"808 401 OFFCURVE",
"813 406 OFFCURVE",
"813 412 CURVE",
"813 418 OFFCURVE",
"808 423 OFFCURVE",
"802 423 CURVE",
"189 423 LINE",
"184 423 OFFCURVE",
"179 420 OFFCURVE",
"178 415 CURVE",
"51 15 LINE",
"49 9 OFFCURVE",
"52 2 OFFCURVE",
"58 1 CURVE",
"59 0 OFFCURVE",
"60 0 OFFCURVE",
"62 0 CURVE",
"66 0 OFFCURVE",
"71 3 OFFCURVE",
"72 8 CURVE",
"121 160 LINE",
"429 160 LINE",
"470 8 LINE",
"471 3 OFFCURVE",
"475 0 OFFCURVE",
"481 0 CURVE",
"932 0 LINE",
"938 0 OFFCURVE",
"943 5 OFFCURVE",
"943 11 CURVE",
"943 18 OFFCURVE",
"938 23 OFFCURVE",
"932 23 CURVE"
);
},
{
closed = 1;
nodes = (
"197 401 LINE",
"363 401 LINE",
"423 182 LINE",
"128 182 LINE"
);
}
);
width = 993;
}
);
unicode = 007B;
},
{
glyphname = braceright;
lastChange = "2018-03-17 10:38:56 +0000";
layers = (
{
layerId = "10F75160-F472-40CF-9C73-F68C0EB315F4";
paths = (
{
closed = 1;
nodes = (
"534 23 LINE",
"475 212 LINE",
"793 212 LINE",
"799 212 OFFCURVE",
"804 217 OFFCURVE",
"804 223 CURVE",
"804 230 OFFCURVE",
"799 235 OFFCURVE",
"793 235 CURVE",
"468 235 LINE",
"417 401 LINE",
"826 401 LINE",
"832 401 OFFCURVE",
"837 406 OFFCURVE",
"837 412 CURVE",
"837 418 OFFCURVE",
"832 423 OFFCURVE",
"826 423 CURVE",
"120 423 LINE",
"117 423 OFFCURVE",
"115 423 OFFCURVE",
"113 421 CURVE",
"112 420 OFFCURVE",
"18 346 OFFCURVE",
"61 220 CURVE",
"64 211 OFFCURVE",
"136 0 OFFCURVE",
"261 0 CURVE",
"971 0 LINE",
"978 0 OFFCURVE",
"983 5 OFFCURVE",
"983 11 CURVE",
"983 18 OFFCURVE",
"978 23 OFFCURVE",
"971 23 CURVE"
);
},
{
closed = 1;
nodes = (
"49 327 OFFCURVE",
"109 388 OFFCURVE",
"124 401 CURVE",
"393 401 LINE",
"510 23 LINE",
"261 23 LINE",
"153 23 OFFCURVE",
"83 225 OFFCURVE",
"82 227 CURVE"
);
}
);
width = 1033;
}
);
unicode = 007D;
},
{
glyphname = bracketleft;
lastChange = "2018-03-17 10:39:01 +0000";
layers = (
{
layerId = "10F75160-F472-40CF-9C73-F68C0EB315F4";
paths = (
{
closed = 1;
nodes = (
"737 108 OFFCURVE",
"731 104 OFFCURVE",
"730 98 CURVE",
"729 97 OFFCURVE",
"713 23 OFFCURVE",
"664 23 CURVE",
"501 23 LINE",
"492 25 OFFCURVE",
"420 43 OFFCURVE",
"399 146 CURVE",
"715 146 LINE",
"718 146 OFFCURVE",
"721 148 OFFCURVE",
"723 150 CURVE",
"725 152 OFFCURVE",
"726 155 OFFCURVE",
"726 158 CURVE",
"726 159 OFFCURVE",
"720 266 OFFCURVE",
"607 287 CURVE",
"606 287 OFFCURVE",
"605 287 OFFCURVE",
"604 287 CURVE",
"443 287 LINE",
"442 287 OFFCURVE",
"441 287 OFFCURVE",
"441 287 CURVE",
"418 282 OFFCURVE",
"378 260 OFFCURVE",
"372 215 CURVE",
"335 276 OFFCURVE",
"272 287 OFFCURVE",
"271 287 CURVE",
"270 287 OFFCURVE",
"270 287 OFFCURVE",
"269 287 CURVE",
"107 287 LINE",
"75 287 OFFCURVE",
"52 271 OFFCURVE",
"39 240 CURVE",
"30 218 OFFCURVE",
"30 196 OFFCURVE",
"30 195 CURVE",
"30 189 OFFCURVE",
"35 184 OFFCURVE",
"41 184 CURVE",
"41 184 OFFCURVE",
"41 184 OFFCURVE",
"41 184 CURVE",
"48 184 OFFCURVE",
"53 189 OFFCURVE",
"53 195 CURVE",
"53 196 OFFCURVE",
"53 213 OFFCURVE",
"60 231 CURVE",
"69 254 OFFCURVE",
"85 265 OFFCURVE",
"107 265 CURVE",
"268 265 LINE",
"277 263 OFFCURVE",
"345 248 OFFCURVE",
"367 169 CURVE",
"145 169 LINE",
"143 169 OFFCURVE",
"89 169 OFFCURVE",
"71 135 CURVE",
"60 115 OFFCURVE",
"65 89 OFFCURVE",
"86 57 CURVE",
"87 55 OFFCURVE",
"123 1 OFFCURVE",
"184 1 CURVE",
"332 1 LINE",
"332 1 OFFCURVE",
"333 2 OFFCURVE",
"334 2 CURVE",
"337 2 OFFCURVE",
"394 14 OFFCURVE",
"410 60 CURVE",
"447 9 OFFCURVE",
"495 1 OFFCURVE",
"498 0 CURVE",
"498 0 OFFCURVE",
"499 0 OFFCURVE",
"500 0 CURVE",
"664 0 LINE",
"732 0 OFFCURVE",
"751 89 OFFCURVE",
"752 93 CURVE",
"753 99 OFFCURVE",
"749 105 OFFCURVE",
"743 106 CURVE"
);
},
{
closed = 1;
nodes = (
"603 265 LINE",
"678 250 OFFCURVE",
"697 194 OFFCURVE",
"702 169 CURVE",
"396 169 LINE",
"394 193 LINE",
"389 247 OFFCURVE",
"436 262 OFFCURVE",
"445 265 CURVE"
);
},
{
closed = 1;
nodes = (
"184 24 LINE",
"136 24 OFFCURVE",
"105 69 OFFCURVE",
"105 70 CURVE",
"94 86 OFFCURVE",
"83 109 OFFCURVE",
"91 124 CURVE",
"100 142 OFFCURVE",
"133 146 OFFCURVE",
"145 146 CURVE",
"373 146 LINE",
"392 79 LINE",
"386 39 OFFCURVE",
"338 26 OFFCURVE",
"330 24 CURVE"
);
}
);
width = 782;
}
);
unicode = 005B;
},
{
glyphname = bracketright;
lastChange = "2018-03-17 10:39:06 +0000";
layers = (
{
layerId = "10F75160-F472-40CF-9C73-F68C0EB315F4";
paths = (
{
closed = 1;
nodes = (
"713 107 OFFCURVE",
"707 103 OFFCURVE",
"706 97 CURVE",
"705 97 OFFCURVE",
"689 22 OFFCURVE",
"640 22 CURVE",
"477 22 LINE",
"468 24 OFFCURVE",
"396 43 OFFCURVE",
"375 146 CURVE",
"691 146 LINE",
"694 146 OFFCURVE",
"697 147 OFFCURVE",
"699 149 CURVE",
"701 152 OFFCURVE",
"702 155 OFFCURVE",
"702 158 CURVE",
"702 159 OFFCURVE",
"696 265 OFFCURVE",
"583 287 CURVE",
"582 287 OFFCURVE",
"581 287 OFFCURVE",
"580 287 CURVE",
"419 287 LINE",
"418 287 OFFCURVE",
"417 287 OFFCURVE",
"417 287 CURVE",
"391 281 OFFCURVE",
"345 255 OFFCURVE",
"347 199 CURVE",
"343 207 OFFCURVE",
"340 212 OFFCURVE",
"339 213 CURVE",
"306 279 OFFCURVE",
"241 280 OFFCURVE",
"239 280 CURVE",
"107 280 LINE",
"79 280 OFFCURVE",
"58 270 OFFCURVE",
"45 251 CURVE",
"10 200 OFFCURVE",
"49 99 OFFCURVE",
"50 95 CURVE",
"87 -3 OFFCURVE",
"156 -7 OFFCURVE",
"166 -7 CURVE",
"167 -7 OFFCURVE",
"167 -6 OFFCURVE",
"167 -6 CURVE",
"323 -6 LINE",
"324 -6 OFFCURVE",
"324 -6 OFFCURVE",
"325 -6 CURVE",
"352 -2 OFFCURVE",
"370 11 OFFCURVE",
"379 32 CURVE",
"383 41 OFFCURVE",
"385 50 OFFCURVE",
"386 60 CURVE",
"423 9 OFFCURVE",
"471 0 OFFCURVE",
"474 0 CURVE",
"474 0 OFFCURVE",
"475 0 OFFCURVE",
"476 0 CURVE",
"640 0 LINE",
"707 0 OFFCURVE",
"727 89 OFFCURVE",
"728 93 CURVE",
"729 99 OFFCURVE",
"725 105 OFFCURVE",
"719 106 CURVE"
);
},
{
closed = 1;
nodes = (
"579 264 LINE",
"654 250 OFFCURVE",
"673 193 OFFCURVE",
"678 169 CURVE",
"372 169 LINE",
"370 193 LINE",
"365 247 OFFCURVE",
"412 262 OFFCURVE",
"420 264 CURVE"
);
},
{
closed = 1;
nodes = (
"353 28 OFFCURVE",
"341 20 OFFCURVE",
"322 16 CURVE",
"167 16 LINE",
"166 16 OFFCURVE",
"105 14 OFFCURVE",
"71 103 CURVE",
"61 129 OFFCURVE",
"40 204 OFFCURVE",
"64 238 CURVE",
"73 251 OFFCURVE",
"87 257 OFFCURVE",
"107 257 CURVE",
"239 257 LINE",
"241 257 OFFCURVE",
"292 256 OFFCURVE",
"319 202 CURVE",
"337 172 OFFCURVE",
"379 85 OFFCURVE",
"359 42 CURVE"
);
}
);
width = 758;
}
);
unicode = 005D;
},
{
glyphname = hyphen;
lastChange = "2018-03-17 10:39:11 +0000";
layers = (
{
layerId = "10F75160-F472-40CF-9C73-F68C0EB315F4";
paths = (
{
closed = 1;
nodes = (
"62 159 LINE",
"55 159 OFFCURVE",
"50 165 OFFCURVE",
"50 171 CURVE",
"50 177 OFFCURVE",
"55 182 OFFCURVE",
"62 182 CURVE",
"220 182 LINE",
"226 182 OFFCURVE",
"231 177 OFFCURVE",
"231 171 CURVE",
"231 165 OFFCURVE",
"226 159 OFFCURVE",
"220 159 CURVE"
);
}
);
width = 281;
}
);
unicode = 002D;
},
{
glyphname = dollar;
lastChange = "2018-03-17 10:39:17 +0000";
layers = (
{
layerId = "10F75160-F472-40CF-9C73-F68C0EB315F4";
paths = (
{
closed = 1;
nodes = (
"322 235 LINE",
"272 401 LINE",
"393 401 LINE",
"458 401 OFFCURVE",
"477 307 OFFCURVE",
"477 307 CURVE",
"478 300 OFFCURVE",
"484 296 OFFCURVE",
"490 298 CURVE",
"496 299 OFFCURVE",
"500 305 OFFCURVE",
"499 311 CURVE",
"498 315 OFFCURVE",
"477 423 OFFCURVE",
"393 423 CURVE",
"118 423 LINE",
"117 423 OFFCURVE",
"116 423 OFFCURVE",
"115 423 CURVE",
"114 423 OFFCURVE",
"27 396 OFFCURVE",
"56 291 CURVE",
"57 288 OFFCURVE",
"79 212 OFFCURVE",
"188 212 CURVE",
"305 212 LINE",
"361 23 LINE",
"220 23 LINE",
"209 27 OFFCURVE",
"144 52 OFFCURVE",
"127 125 CURVE",
"126 131 OFFCURVE",
"120 135 OFFCURVE",
"113 134 CURVE",
"107 132 OFFCURVE",
"104 126 OFFCURVE",
"105 120 CURVE",
"127 28 OFFCURVE",
"211 2 OFFCURVE",
"214 1 CURVE",
"216 0 OFFCURVE",
"217 0 OFFCURVE",
"218 0 CURVE",
"368 0 LINE",
"388 -65 LINE",
"389 -70 OFFCURVE",
"394 -74 OFFCURVE",
"399 -74 CURVE",
"400 -74 OFFCURVE",
"401 -73 OFFCURVE",
"402 -73 CURVE",
"408 -71 OFFCURVE",
"411 -65 OFFCURVE",
"410 -59 CURVE",
"392 0 LINE",
"488 0 LINE",
"534 0 OFFCURVE",
"556 28 OFFCURVE",
"566 50 CURVE",
"577 74 OFFCURVE",
"577 98 OFFCURVE",
"577 99 CURVE",
"577 221 OFFCURVE",
"438 234 OFFCURVE",
"436 235 CURVE"
);
},
{
closed = 1;
nodes = (
"97 235 OFFCURVE",
"78 295 OFFCURVE",
"77 297 CURVE",
"56 375 OFFCURVE",
"110 397 OFFCURVE",
"120 401 CURVE",
"248 401 LINE",
"298 235 LINE",
"188 235 LINE"
);
},
{
closed = 1;
nodes = (
"535 35 OFFCURVE",
"515 23 OFFCURVE",
"488 23 CURVE",
"385 23 LINE",
"328 212 LINE",
"435 212 LINE",
"440 211 OFFCURVE",
"554 200 OFFCURVE",
"554 99 CURVE",
"554 98 OFFCURVE",
"554 79 OFFCURVE",
"546 60 CURVE"
);
}
);
width = 627;
}
);
unicode = 0024;
},
{
glyphname = plus;
lastChange = "2018-03-17 10:39:20 +0000";
layers = (
{
layerId = "10F75160-F472-40CF-9C73-F68C0EB315F4";
paths = (
{
closed = 1;
nodes = (
"225 160 LINE",
"271 87 LINE",
"274 82 OFFCURVE",
"281 80 OFFCURVE",
"286 84 CURVE",
"292 87 OFFCURVE",
"293 94 OFFCURVE",
"290 99 CURVE",
"143 337 LINE",
"141 340 OFFCURVE",
"137 342 OFFCURVE",
"133 342 CURVE",
"63 342 LINE",
"60 342 OFFCURVE",
"56 341 OFFCURVE",
"54 338 CURVE",
"52 335 OFFCURVE",
"51 331 OFFCURVE",
"52 328 CURVE",
"117 90 LINE",
"118 85 OFFCURVE",
"123 82 OFFCURVE",
"128 82 CURVE",
"129 82 OFFCURVE",
"130 82 OFFCURVE",
"131 83 CURVE",
"137 84 OFFCURVE",
"140 90 OFFCURVE",
"139 96 CURVE",
"121 160 LINE"
);
},
{
closed = 1;
nodes = (
"211 183 LINE",
"115 183 LINE",
"78 320 LINE",
"127 320 LINE"
);
},
{
closed = 1;
nodes = (
"502 86 OFFCURVE",
"504 91 OFFCURVE",
"503 96 CURVE",
"440 334 LINE",
"438 340 OFFCURVE",
"432 344 OFFCURVE",
"426 342 CURVE",
"420 340 OFFCURVE",
"416 334 OFFCURVE",
"418 328 CURVE",
"470 134 LINE",
"274 342 LINE",
"270 346 OFFCURVE",
"265 346 OFFCURVE",
"260 344 CURVE",
"256 341 OFFCURVE",
"253 336 OFFCURVE",
"255 331 CURVE",
"319 91 LINE",
"321 85 OFFCURVE",
"325 82 OFFCURVE",
"330 82 CURVE",
"331 82 OFFCURVE",
"332 82 OFFCURVE",
"333 83 CURVE",
"339 84 OFFCURVE",
"343 90 OFFCURVE",
"341 96 CURVE",
"288 293 LINE",
"484 86 LINE",
"487 82 OFFCURVE",
"493 81 OFFCURVE",
"498 84 CURVE"
);
},
{
closed = 1;
nodes = (
"563 401 LINE",
"569 401 OFFCURVE",
"574 406 OFFCURVE",
"574 412 CURVE",
"574 418 OFFCURVE",
"569 423 OFFCURVE",
"563 423 CURVE",
"62 423 LINE",
"55 423 OFFCURVE",
"50 418 OFFCURVE",
"50 412 CURVE",
"50 406 OFFCURVE",
"55 401 OFFCURVE",
"62 401 CURVE"
);
},
{
closed = 1;
nodes = (
"185 23 LINE",
"179 23 OFFCURVE",
"174 18 OFFCURVE",
"174 12 CURVE",
"174 6 OFFCURVE",
"179 0 OFFCURVE",
"185 0 CURVE",
"687 0 LINE",
"693 0 OFFCURVE",
"698 6 OFFCURVE",
"698 12 CURVE",
"698 18 OFFCURVE",
"693 23 OFFCURVE",
"687 23 CURVE"
);
},
{
closed = 1;
nodes = (
"477 335 OFFCURVE",
"476 331 OFFCURVE",
"477 328 CURVE",
"543 91 LINE",
"544 86 OFFCURVE",
"549 83 OFFCURVE",
"554 83 CURVE",
"647 83 LINE",
"648 83 OFFCURVE",
"649 83 OFFCURVE",
"650 83 CURVE",
"651 83 OFFCURVE",
"672 88 OFFCURVE",
"684 109 CURVE",
"694 127 OFFCURVE",
"695 149 OFFCURVE",
"686 177 CURVE",
"653 285 LINE",
"653 287 OFFCURVE",
"637 342 OFFCURVE",
"595 342 CURVE",
"488 342 LINE",
"485 342 OFFCURVE",
"481 341 OFFCURVE",
"479 338 CURVE"
);
},
{
closed = 1;
nodes = (
"619 320 OFFCURVE",
"632 279 OFFCURVE",
"632 279 CURVE",
"664 170 LINE",
"671 149 OFFCURVE",
"671 132 OFFCURVE",
"664 121 CURVE",
"659 110 OFFCURVE",
"649 106 OFFCURVE",
"646 105 CURVE",
"563 105 LINE",
"503 320 LINE",
"595 320 LINE"
);
}
);
width = 748;
}
);
unicode = 002B;
},
{
glyphname = at;
lastChange = "2018-03-17 10:39:23 +0000";
layers = (
{
layerId = "10F75160-F472-40CF-9C73-F68C0EB315F4";
paths = (
{
closed = 1;
nodes = (
"242 23 LINE",
"219 36 OFFCURVE",
"54 142 OFFCURVE",
"74 318 CURVE",
"74 322 OFFCURVE",
"82 401 OFFCURVE",
"194 401 CURVE",
"356 401 LINE",
"358 401 OFFCURVE",
"489 402 OFFCURVE",
"527 298 CURVE",
"364 298 LINE",
"362 298 OFFCURVE",
"361 298 OFFCURVE",
"360 297 CURVE",
"358 297 OFFCURVE",
"327 284 OFFCURVE",
"313 250 CURVE",
"303 226 OFFCURVE",
"304 198 OFFCURVE",
"317 167 CURVE",
"318 163 OFFCURVE",
"353 81 OFFCURVE",
"410 81 CURVE",
"664 81 LINE",
"667 81 OFFCURVE",
"670 83 OFFCURVE",
"672 85 CURVE",
"674 87 OFFCURVE",
"701 118 OFFCURVE",
"714 154 CURVE",
"733 121 OFFCURVE",
"774 81 OFFCURVE",
"858 81 CURVE",
"864 81 OFFCURVE",
"869 86 OFFCURVE",
"869 93 CURVE",
"869 99 OFFCURVE",
"864 104 OFFCURVE",
"858 104 CURVE",
"738 104 OFFCURVE",
"720 195 OFFCURVE",
"719 199 CURVE",
"719 199 LINE",
"718 208 OFFCURVE",
"704 299 OFFCURVE",
"598 299 CURVE",
"550 298 LINE",
"511 425 OFFCURVE",
"357 423 OFFCURVE",
"356 423 CURVE",
"194 423 LINE",
"61 423 OFFCURVE",
"52 321 OFFCURVE",
"52 320 CURVE",
"29 118 OFFCURVE",
"231 2 OFFCURVE",
"233 1 CURVE",
"235 0 OFFCURVE",
"237 0 OFFCURVE",
"238 0 CURVE",
"880 0 LINE",
"887 0 OFFCURVE",
"892 5 OFFCURVE",
"892 11 CURVE",
"892 17 OFFCURVE",
"887 23 OFFCURVE",
"880 23 CURVE"
);
},
{
closed = 1;
nodes = (
"542 275 OFFCURVE",
"542 275 OFFCURVE",
"542 275 CURVE",
"542 275 OFFCURVE",
"542 275 OFFCURVE",
"542 275 CURVE",
"542 275 OFFCURVE",
"542 275 OFFCURVE",
"542 275 CURVE",
"598 276 LINE",
"687 276 OFFCURVE",
"696 199 OFFCURVE",
"697 195 CURVE",
"702 164 OFFCURVE",
"673 122 OFFCURVE",
"659 104 CURVE",
"410 104 LINE",
"375 104 OFFCURVE",
"346 155 OFFCURVE",
"338 175 CURVE",
"310 244 OFFCURVE",
"355 270 OFFCURVE",
"366 275 CURVE",
"542 275 LINE"
);
}
);
width = 942;
}
);
unicode = 0040;
},
{
glyphname = ampersand;
lastChange = "2018-03-17 10:39:27 +0000";
layers = (
{
layerId = "10F75160-F472-40CF-9C73-F68C0EB315F4";
paths = (
{
closed = 1;
nodes = (
"636 23 LINE",
"508 112 LINE",
"548 212 LINE",
"639 212 LINE",
"645 212 OFFCURVE",
"650 217 OFFCURVE",
"650 223 CURVE",
"650 229 OFFCURVE",
"645 234 OFFCURVE",
"639 234 CURVE",
"541 234 LINE",
"536 234 OFFCURVE",
"532 231 OFFCURVE",
"530 227 CURVE",
"489 125 LINE",
"272 278 LINE",
"272 412 LINE",
"272 418 OFFCURVE",
"267 423 OFFCURVE",
"261 423 CURVE",
"62 423 LINE",
"57 423 OFFCURVE",
"52 420 OFFCURVE",
"51 415 CURVE",
"49 411 OFFCURVE",
"51 405 OFFCURVE",
"55 403 CURVE",
"249 266 LINE",
"249 57 LINE",
"249 56 OFFCURVE",
"249 55 OFFCURVE",
"250 54 CURVE",
"250 53 OFFCURVE",
"271 -14 OFFCURVE",
"357 -14 CURVE",
"357 -14 OFFCURVE",
"357 -14 OFFCURVE",
"357 -14 CURVE",
"358 -14 OFFCURVE",
"361 -15 OFFCURVE",
"368 -15 CURVE",
"393 -15 OFFCURVE",
"459 -8 OFFCURVE",
"487 59 CURVE",
"500 90 LINE",
"626 2 LINE",
"627 1 OFFCURVE",
"630 0 OFFCURVE",
"632 0 CURVE",
"685 0 LINE",
"691 0 OFFCURVE",
"696 5 OFFCURVE",
"696 11 CURVE",
"696 17 OFFCURVE",
"691 23 OFFCURVE",
"685 23 CURVE"
);
},
{
closed = 1;
nodes = (
"98 401 LINE",
"249 401 LINE",
"249 294 LINE"
);
},
{
closed = 1;
nodes = (
"438 1 OFFCURVE",
"363 8 OFFCURVE",
"359 9 CURVE",
"294 9 OFFCURVE",
"275 51 OFFCURVE",
"272 59 CURVE",
"272 250 LINE",
"481 104 LINE",
"466 68 LINE"
);
}
